# Blender v2.79 (sub 0) OBJ File: 'poly desert models.blend'
# www.blender.org
mtllib rock03.mtl
o rock_03_rock03
v 1.048326 0.019881 -0.000002
v 0.546844 3.143137 -0.000001
v 0.000002 0.019881 1.048326
v 0.000001 3.143137 0.546844
v -0.000002 0.019881 -1.048326
v -0.000001 3.143137 -0.546844
v -1.048326 0.019881 0.000002
v -0.546844 3.143137 0.000001
v -0.678879 0.026209 -0.390062
v -0.678879 0.355286 -0.390062
v -1.230200 0.026209 0.161261
v -1.230200 0.355286 0.161261
v -1.230202 0.026209 -0.941384
v -1.230202 0.355286 -0.941384
v -1.781523 0.026209 -0.390061
v -1.781523 0.355286 -0.390061
v 1.335123 0.026209 0.796456
v 1.108329 1.845651 0.661164
v 0.783802 0.026209 1.347778
v 0.650659 1.845651 1.118835
v 0.783800 0.026209 0.245134
v 0.650658 1.845651 0.203494
v 0.232479 0.026209 0.796457
v 0.192988 1.845651 0.661165
v 0.534732 0.006642 1.160649
v 0.374813 2.305197 0.813540
v -0.238073 0.006642 1.933456
v -0.166874 2.305197 1.355229
v -0.238076 0.006642 0.387843
v -0.166876 2.305197 0.271853
v -1.010881 0.006642 1.160651
v -0.708563 2.305197 0.813542
v -0.357523 0.025684 0.690113
v -0.343066 1.385279 0.662206
v -1.070172 0.025684 1.402764
v -1.026896 1.385279 1.346039
v -1.070174 0.025684 -0.022536
v -1.026899 1.385279 -0.021624
v -1.782823 0.025684 0.690115
v -1.710729 1.385279 0.662208
v -0.828900 0.026209 1.660272
v -0.828900 0.729115 1.660272
v -1.380221 0.026209 2.211595
v -1.380221 0.729115 2.211595
v -1.380223 0.026209 1.108950
v -1.380223 0.729115 1.108950
v -1.931544 0.026209 1.660273
v -1.931544 0.729115 1.660273
v 0.087951 0.026209 -0.424303
v 0.073011 1.845651 -0.352227
v -0.463370 0.026209 0.127020
v -0.384659 1.845651 0.105444
v -0.463372 0.026209 -0.975624
v -0.384660 1.845651 -0.809897
v -1.014693 0.026209 -0.424301
v -0.842330 1.845651 -0.352226
v 1.652533 0.000339 0.071750
v 1.652533 0.329416 0.071750
v 1.101211 0.000339 0.623073
v 1.101211 0.329416 0.623073
v 1.101210 0.000339 -0.479571
v 1.101210 0.329416 -0.479571
v 0.549888 0.000339 0.071752
v 0.549888 0.329416 0.071752
vt 0.088844 0.796294
vt 0.031098 0.757016
vt 0.039060 0.741904
vt 0.104108 0.767324
vt 0.043447 0.725395
vt 0.112539 0.735683
vt 0.044129 0.708337
vt 0.113609 0.702945
vt 0.067417 0.821071
vt 0.020046 0.770026
vt 0.113609 0.817718
vt 0.092189 0.842487
vt 0.037518 0.741493
vt 0.041912 0.724986
vt 0.103709 0.895405
vt 0.110952 0.895405
vt 0.110952 0.912625
vt 0.103709 0.912626
vt 0.103709 0.879301
vt 0.103709 0.886538
vt 0.086488 0.886538
vt 0.086488 0.879301
vt 0.086488 0.912626
vt 0.079226 0.912626
vt 0.079226 0.895405
vt 0.086488 0.895405
vt 0.086488 0.888140
vt 0.103709 0.888140
vt 0.186451 0.848471
vt 0.226785 0.844349
vt 0.228738 0.858511
vt 0.188804 0.865530
vt 0.186777 0.796821
vt 0.227056 0.801481
vt 0.227322 0.815768
vt 0.187290 0.814041
vt 0.227358 0.830061
vt 0.187072 0.831265
vt 0.171745 0.867884
vt 0.169391 0.850824
vt 0.228385 0.801448
vt 0.228738 0.815739
vt 0.142593 0.726043
vt 0.193435 0.733157
vt 0.190140 0.749753
vt 0.137892 0.749721
vt 0.192626 0.766478
vt 0.141622 0.773582
vt 0.198304 0.782439
vt 0.149475 0.796387
vt 0.149625 0.702945
vt 0.198304 0.716958
vt 0.117771 0.777304
vt 0.114043 0.753454
vt 0.191620 0.749515
vt 0.194181 0.766240
vt 0.138378 0.864196
vt 0.168284 0.862590
vt 0.168957 0.883940
vt 0.139080 0.886445
vt 0.136946 0.797473
vt 0.166972 0.798563
vt 0.166346 0.819914
vt 0.136294 0.819724
vt 0.167331 0.841252
vt 0.137299 0.841961
vt 0.114043 0.819072
vt 0.114695 0.796821
vt 0.168957 0.798621
vt 0.168332 0.819972
vt 0.261726 0.814042
vt 0.246255 0.814047
vt 0.246249 0.796826
vt 0.261720 0.796821
vt 0.229173 0.814045
vt 0.244631 0.814045
vt 0.244631 0.831266
vt 0.229172 0.831266
vt 0.261747 0.848487
vt 0.246235 0.848487
vt 0.246232 0.831266
vt 0.261750 0.831266
vt 0.278968 0.848487
vt 0.278968 0.831266
vt 0.037120 0.894276
vt 0.076925 0.890404
vt 0.078792 0.904578
vt 0.039368 0.911349
vt 0.037600 0.842921
vt 0.077476 0.847754
vt 0.075441 0.861904
vt 0.035148 0.859966
vt 0.075309 0.876200
vt 0.034989 0.877187
vt 0.022294 0.913598
vt 0.020046 0.896524
vt 0.078792 0.847943
vt 0.076757 0.862094
vt 0.232008 0.788192
vt 0.226471 0.788192
vt 0.226471 0.775027
vt 0.232008 0.775027
vt 0.232008 0.769495
vt 0.245173 0.769495
vt 0.245173 0.775027
vt 0.250724 0.775027
vt 0.250724 0.788192
vt 0.245173 0.788192
vt 0.245173 0.793745
vt 0.232008 0.793745
vt 0.232008 0.768271
vt 0.245173 0.768271
vn 0.7026 0.1128 0.7026
vn -0.7026 0.1128 0.7026
vn -0.7026 0.1128 -0.7026
vn 0.7026 0.1128 -0.7026
vn 0.0000 -1.0000 0.0000
vn 0.0000 1.0000 0.0000
vn 0.7071 0.0000 0.7071
vn -0.7071 0.0000 0.7071
vn -0.7071 0.0000 -0.7071
vn 0.7071 0.0000 -0.7071
vn 0.7002 0.1393 0.7002
vn -0.7066 0.0372 0.7066
vn -0.7055 -0.0678 -0.7055
vn 0.7067 0.0355 -0.7067
vn 0.6987 0.1541 0.6987
vn -0.6934 0.1959 0.6934
vn -0.7070 -0.0138 -0.7070
vn 0.7059 -0.0575 -0.7059
vn 0.7071 0.0070 0.7071
vn -0.7062 0.0519 0.7062
vn -0.7069 0.0230 -0.7069
vn 0.7069 -0.0220 -0.7069
vn 0.7069 -0.0222 0.7069
vn -0.7066 0.0389 0.7066
vn -0.7039 0.0946 -0.7039
vn 0.7067 0.0338 -0.7067
usemtl polydesert_atlas
s off
f 1/1/1 2/2/1 4/3/1 3/4/1
f 3/4/2 4/3/2 8/5/2 7/6/2
f 7/6/3 8/5/3 6/7/3 5/8/3
f 5/9/4 6/10/4 2/2/4 1/1/4
f 3/11/5 7/12/5 5/9/5 1/1/5
f 8/5/6 4/3/6 2/13/6 6/14/6
f 9/15/7 10/16/7 12/17/7 11/18/7
f 11/19/8 12/20/8 16/21/8 15/22/8
f 15/23/9 16/24/9 14/25/9 13/26/9
f 13/26/10 14/27/10 10/28/10 9/15/10
f 11/18/5 15/23/5 13/26/5 9/15/5
f 16/21/6 12/20/6 10/28/6 14/27/6
f 17/29/11 18/30/11 20/31/11 19/32/11
f 19/33/12 20/34/12 24/35/12 23/36/12
f 23/36/13 24/35/13 22/37/13 21/38/13
f 21/38/14 22/37/14 18/30/14 17/29/14
f 19/32/5 23/39/5 21/40/5 17/29/5
f 24/35/6 20/34/6 18/41/6 22/42/6
f 25/43/15 26/44/15 28/45/15 27/46/15
f 27/46/16 28/45/16 32/47/16 31/48/16
f 31/48/17 32/47/17 30/49/17 29/50/17
f 29/51/18 30/52/18 26/44/18 25/43/18
f 27/46/5 31/48/5 29/53/5 25/54/5
f 32/47/6 28/45/6 26/55/6 30/56/6
f 33/57/19 34/58/19 36/59/19 35/60/19
f 35/61/20 36/62/20 40/63/20 39/64/20
f 39/64/21 40/63/21 38/65/21 37/66/21
f 37/66/22 38/65/22 34/58/22 33/57/22
f 35/61/5 39/64/5 37/67/5 33/68/5
f 40/63/6 36/62/6 34/69/6 38/70/6
f 41/71/7 42/72/7 44/73/7 43/74/7
f 43/75/8 44/76/8 48/77/8 47/78/8
f 47/79/9 48/80/9 46/81/9 45/82/9
f 45/82/10 46/81/10 42/72/10 41/71/10
f 43/83/5 47/79/5 45/82/5 41/84/5
f 48/77/6 44/76/6 42/72/6 46/81/6
f 49/85/23 50/86/23 52/87/23 51/88/23
f 51/89/24 52/90/24 56/91/24 55/92/24
f 55/92/25 56/91/25 54/93/25 53/94/25
f 53/94/26 54/93/26 50/86/26 49/85/26
f 51/88/5 55/95/5 53/96/5 49/85/5
f 56/91/6 52/90/6 50/97/6 54/98/6
f 57/99/7 58/100/7 60/101/7 59/102/7
f 59/102/8 60/103/8 64/104/8 63/105/8
f 63/105/9 64/106/9 62/107/9 61/108/9
f 61/108/10 62/109/10 58/110/10 57/99/10
f 59/102/5 63/105/5 61/108/5 57/99/5
f 64/104/6 60/103/6 58/111/6 62/112/6
