# Blender v2.79 (sub 0) OBJ File: 'poly desert models.blend'
# www.blender.org
mtllib rock02.mtl
o rock_02_rock02
v 1.056113 0.019881 -0.000002
v 0.554631 3.143137 -0.000001
v 0.000002 0.019881 1.056113
v 0.000001 3.143137 0.554631
v -0.000002 0.019881 -1.056113
v -0.000001 3.143137 -0.554631
v -1.056113 0.019881 0.000002
v -0.554631 3.143137 0.000001
v -0.683921 0.026209 -0.392960
v -0.683921 0.355286 -0.392960
v -1.239338 0.026209 0.162458
v -1.239338 0.355286 0.162458
v -1.239340 0.026209 -0.948376
v -1.239340 0.355286 -0.948376
v -1.794756 0.026209 -0.392958
v -1.794756 0.355286 -0.392958
v 1.345040 0.026209 0.802371
v 0.789624 0.026209 1.357790
v 0.654311 1.845651 1.125113
v 0.789622 0.026209 0.246955
v 0.654309 1.845651 0.204636
v 0.234206 0.026209 0.802373
v 0.194071 1.845651 0.664875
v 0.538704 0.006642 1.169270
v 0.377924 2.305197 0.820293
v -0.239842 0.006642 1.947817
v -0.239844 0.006642 0.390724
v -0.168261 2.305197 0.274110
v -1.018389 0.006642 1.169272
v -0.714444 2.305197 0.820295
v -0.360179 0.025684 0.695239
v -0.344316 1.385279 0.664619
v -1.078121 0.025684 1.413183
v -1.030638 1.385279 1.350944
v -1.078123 0.025684 -0.022703
v -1.030640 1.385279 -0.021703
v -1.796065 0.025684 0.695241
v -1.716963 1.385279 0.664621
v -0.835057 0.026209 1.672604
v -0.835057 0.729115 1.672604
v -1.390473 0.729115 2.228022
v -1.390475 0.026209 1.117188
v -1.390475 0.729115 1.117188
v -1.945891 0.026209 1.672606
v -1.945891 0.729115 1.672606
v 0.088605 0.026209 -0.427454
v 0.073421 1.845651 -0.354204
v -0.466812 0.026209 0.127964
v -0.386817 1.845651 0.106036
v -0.466814 0.026209 -0.982870
v -0.386819 1.845651 -0.814442
v -1.022230 0.026209 -0.427452
v 1.664807 0.000339 0.072283
v 1.345040 0.917764 0.802371
v 1.109391 0.000339 0.627701
v 1.109391 0.329416 0.627701
v 1.109389 0.000339 -0.483134
v 1.109389 0.329416 -0.483134
v 0.553973 0.000339 0.072285
v 0.553973 0.329416 0.072285
v -0.388160 3.143137 -0.166470
v -0.133524 3.143137 -0.421107
v -0.214518 3.143137 -0.222806
v -0.260523 2.872164 -0.314785
v -0.207149 1.718904 1.682310
v 0.029004 2.305197 1.169214
v -0.367632 2.305197 1.167105
v -1.357244 1.385279 1.024339
v -1.592617 1.385279 0.788966
v -1.522979 1.247933 0.953236
v -1.385372 1.385279 0.733481
v -1.663759 0.729115 1.954737
v -1.805130 0.729115 1.813366
v -1.729272 0.575966 1.889223
v -1.599378 0.729116 1.733455
v -1.496904 0.026209 2.121591
v -1.390473 0.577865 2.228022
v -1.196050 0.026209 2.033598
v -1.022230 1.060006 -0.427452
v -0.725887 1.845651 -0.233034
v -0.664806 1.845651 -0.536453
v -1.374278 0.355286 0.027519
v -1.632127 0.355286 -0.230330
v -1.438733 0.176157 -0.036936
v -1.252650 0.355286 -0.158817
v -1.796065 0.733586 0.695241
v -1.796065 0.434516 0.695241
v -1.657450 0.554511 0.833857
v -1.589691 0.617671 0.488866
v -0.211766 3.143137 0.342864
v -0.438035 3.143137 0.116596
v -0.339824 2.708310 0.283343
v -0.256538 3.143137 0.184892
v 0.196885 3.143137 -0.357745
v 0.362703 3.143137 -0.191928
v 0.222214 3.143137 -0.195607
v 0.420867 2.457906 -0.275439
v -0.000001 2.354461 -0.726520
v -0.000002 1.219870 -1.056113
v -0.108971 1.855758 -0.763210
v 0.202615 1.721014 -0.708921
v 1.532343 0.329416 -0.060181
v 1.532343 0.329416 0.204747
v 0.767202 1.845651 1.012221
v 0.864418 1.845651 0.414744
v 0.649319 1.845652 0.624517
v 0.637477 1.845652 0.878828
v 1.019583 1.292901 0.486952
v 0.860363 1.482451 0.832554
vt 0.179403 0.881025
vt 0.214510 0.868317
vt 0.214442 0.885066
vt 0.175971 0.904440
vt 0.174473 0.898541
vt 0.204161 0.915583
vt 0.191209 0.895763
vt 0.198249 0.896738
vt 0.193568 0.892472
vt 0.186333 0.885931
vt 0.231342 0.868317
vt 0.171284 0.876575
vt 0.174338 0.872972
vt 0.175104 0.879969
vt 0.232767 0.852601
vt 0.229172 0.860816
vt 0.229254 0.852529
vt 0.240828 0.864550
vt 0.232919 0.863909
vt 0.235703 0.862237
vt 0.241342 0.861187
vt 0.245060 0.852486
vt 0.245029 0.861280
vt 0.241379 0.852529
vt 0.232737 0.848992
vt 0.241349 0.848921
vt 0.253921 0.852486
vt 0.253921 0.861346
vt 0.235356 0.858886
vt 0.054592 0.932898
vt 0.045569 0.942833
vt 0.046641 0.922099
vt 0.037795 0.922894
vt 0.038239 0.943498
vt 0.028931 0.923489
vt 0.025556 0.937835
vt 0.020319 0.933732
vt 0.028337 0.914626
vt 0.037200 0.914032
vt 0.043474 0.943193
vt 0.041543 0.943562
vt 0.250513 0.745738
vt 0.251356 0.752989
vt 0.243439 0.761800
vt 0.241674 0.707797
vt 0.249246 0.722930
vt 0.214967 0.719158
vt 0.216354 0.735370
vt 0.216645 0.751659
vt 0.200127 0.736767
vt 0.198738 0.720539
vt 0.250701 0.711625
vt 0.251356 0.711748
vt 0.250271 0.723122
vt 0.104783 0.878867
vt 0.103190 0.864830
vt 0.111368 0.873180
vt 0.100517 0.860197
vt 0.103726 0.855313
vt 0.091671 0.863888
vt 0.084638 0.854906
vt 0.092477 0.854882
vt 0.088125 0.877710
vt 0.082594 0.871073
vt 0.091211 0.849494
vt 0.079226 0.848332
vt 0.085799 0.842921
vt 0.096959 0.870233
vt 0.098339 0.861472
vt 0.094625 0.936948
vt 0.084918 0.943712
vt 0.081933 0.935122
vt 0.110847 0.920308
vt 0.095304 0.921386
vt 0.103407 0.913060
vt 0.102746 0.928637
vt 0.087205 0.929715
vt 0.079226 0.938162
vt 0.100447 0.932601
vt 0.219370 0.781395
vt 0.204262 0.775192
vt 0.219475 0.774833
vt 0.204253 0.771185
vt 0.210838 0.768271
vt 0.209657 0.793135
vt 0.204024 0.786064
vt 0.219187 0.787954
vt 0.219475 0.768271
vt 0.226037 0.774833
vt 0.231776 0.969027
vt 0.232833 0.960274
vt 0.232028 0.971820
vt 0.232834 0.971893
vt 0.237681 0.960270
vt 0.237681 0.971889
vt 0.237684 0.955407
vt 0.249300 0.960270
vt 0.246528 0.976741
vt 0.249301 0.971889
vt 0.178919 0.895270
vt 0.175392 0.896216
vt 0.175861 0.894329
vt 0.098779 0.859768
vt 0.249935 0.715708
vt 0.101365 0.931703
vt 0.102259 0.936390
vt 0.238951 0.861012
vt 0.103435 0.929444
vt 0.110847 0.936675
vt 0.081789 0.924450
vt 0.086974 0.913284
vt 0.200257 0.775127
vt 0.204175 0.780628
vt 0.202594 0.791732
vt 0.203480 0.789303
vt 0.101847 0.853546
vt 0.103899 0.853631
vt 0.172090 0.901430
vt 0.173462 0.899937
vt 0.178272 0.887294
vt 0.178247 0.885472
vt 0.249302 0.976968
vt 0.254165 0.969117
vt 0.171259 0.902919
vt 0.176999 0.892294
vt 0.100682 0.862007
vt 0.099310 0.933665
vt 0.101751 0.855447
vt 0.234294 0.860868
vt 0.186347 0.892935
vt 0.178749 0.883997
vt 0.047367 0.942993
vt 0.051434 0.940361
vt 0.055171 0.937629
vt 0.055488 0.944035
vt 0.052131 0.944556
vt 0.050002 0.944723
vt 0.049078 0.944092
vt 0.179395 0.872187
vt 0.194607 0.928638
vt 0.169391 0.905488
vt 0.210035 0.900655
vt 0.177844 0.890370
vt 0.231342 0.885150
vt 0.170366 0.874682
vt 0.170422 0.871969
vt 0.172322 0.872008
vt 0.175993 0.872118
vt 0.170211 0.881116
vt 0.170213 0.878869
vt 0.173525 0.881120
vt 0.176288 0.881064
vt 0.055488 0.922890
vt 0.030892 0.943898
vt 0.020046 0.923661
vt 0.027540 0.944055
vt 0.045569 0.943001
vt 0.041585 0.943868
vt 0.038239 0.944170
vt 0.231776 0.960179
vt 0.249302 0.955407
vt 0.237681 0.976741
vt 0.254165 0.960269
vt 0.218194 0.794441
vt 0.226037 0.768271
vt 0.198738 0.780541
vt 0.198791 0.777257
vt 0.232645 0.860850
vt 0.105992 0.851426
vt 0.111368 0.857433
vt 0.097958 0.858718
vt 0.093390 0.852141
vt 0.094984 0.854077
vt 0.086514 0.945269
vt 0.095315 0.937754
vt 0.104283 0.943393
vt 0.096910 0.939310
vt 0.080426 0.920018
vt 0.218526 0.767837
vt 0.216513 0.702945
vt 0.250344 0.734317
vn 0.7026 0.1128 0.7026
vn -0.7010 0.1126 0.7042
vn -0.7782 0.1478 -0.6103
vn 0.7763 0.1326 -0.6163
vn 0.0000 -1.0000 0.0000
vn 0.0000 1.0000 0.0000
vn 0.7071 0.0000 0.7071
vn -0.7071 0.0000 0.7071
vn -0.7071 0.0000 -0.7071
vn 0.7071 0.0000 -0.7071
vn 0.5727 0.1458 0.8067
vn -0.7066 0.0378 0.7066
vn -0.7054 -0.0689 -0.7054
vn 0.7007 0.0080 -0.7135
vn 0.6707 0.3168 0.6707
vn -0.7824 0.1933 0.5920
vn -0.7070 -0.0139 -0.7070
vn 0.7059 -0.0578 -0.7059
vn 0.7071 0.0077 0.7071
vn -0.6262 -0.0128 0.7796
vn -0.6924 0.0247 -0.7210
vn 0.7069 -0.0242 -0.7069
vn 0.2730 -0.2328 0.9334
vn 0.7069 -0.0226 0.7069
vn -0.7041 0.0914 0.7042
vn -0.6046 0.0997 -0.7903
vn 0.7067 0.0343 -0.7067
vn -0.2889 0.3513 -0.8905
vn 0.1587 0.7895 0.5928
vn -0.0040 0.6595 0.7517
vn 0.3048 0.5397 0.7848
vn -0.1403 0.6525 0.7447
vn -0.9043 0.3861 -0.1820
vn -0.6592 0.7520 0.0082
vn -0.3392 0.2691 0.9014
vn 0.9452 0.2912 -0.1477
vn 0.3357 0.4409 -0.8324
vn 0.9277 0.3734 -0.0000
vn -0.9342 0.2389 0.2648
vn -0.8902 0.2746 -0.3636
vn -0.6527 0.7550 0.0631
vn -0.8483 0.4685 -0.2468
vn -0.6566 -0.7085 -0.2587
vn -0.7496 0.4458 -0.4893
vn 0.1849 0.0319 -0.9822
vn 0.0260 0.1231 -0.9921
vn 0.5180 0.4823 -0.7065
vn 0.7586 0.6515 -0.0079
vn 0.9194 0.2925 0.2632
vn 0.5410 0.6321 0.5547
vn 0.8539 0.5189 0.0398
vn 0.6338 0.4674 -0.6163
vn -0.7026 0.1131 0.7026
vn -0.7039 0.1126 0.7013
vn -0.7028 0.1108 0.7028
vn -0.7545 0.1212 -0.6450
vn -0.5904 0.2505 -0.7672
vn -0.7061 0.0539 -0.7061
vn -0.7462 0.1418 -0.6504
vn -0.6925 0.2023 -0.6925
vn 0.6925 0.2023 -0.6925
vn 0.7053 0.1510 -0.6927
vn 0.7686 0.1241 -0.6276
vn 0.6997 0.1447 -0.6997
vn 0.7435 0.1194 -0.6580
vn 0.6808 0.2700 0.6808
vn 0.6390 0.0296 -0.7687
vn 0.7032 0.1055 -0.7032
vn -0.6700 0.0384 0.7414
vn -0.6901 0.2182 -0.6901
vn -0.6793 0.0572 0.7316
vn -0.6357 0.4380 0.6357
vn -0.7951 0.1244 0.5936
vn -0.6990 0.0124 0.7150
vn -0.6920 0.0502 -0.7202
vn -0.7064 0.0446 -0.7064
vn 0.7039 0.0957 0.7039
vn 0.7685 0.1483 0.6224
vn -0.7018 0.1222 0.7018
vn -0.6501 0.3933 0.6501
usemtl polydesert_atlas
s off
f 2/1/1 3/2/1 1/3/1
f 92/4/2 8/5/2 7/6/2
f 100/7/3 99/8/3 7/6/3
f 1/3/4 101/9/4 97/10/4
f 7/11/5 1/3/5 3/2/5
f 63/12/6 93/13/6 96/14/6
f 10/15/7 11/16/7 9/17/7
f 15/18/8 11/19/8 84/20/8
f 16/21/9 13/22/9 15/23/9
f 14/24/10 9/25/10 13/26/10
f 15/23/5 9/27/5 11/28/5
f 10/15/6 14/24/6 85/29/6
f 54/30/11 19/31/11 18/32/11
f 19/31/12 22/33/12 18/32/12
f 23/34/13 20/35/13 22/33/13
f 108/36/14 54/37/14 20/35/14
f 22/33/5 17/38/5 18/39/5
f 23/34/6 107/40/6 106/41/6
f 25/42/15 66/43/15 65/44/15
f 65/45/16 30/46/16 29/47/16
f 30/46/17 27/48/17 29/47/17
f 27/48/18 25/42/18 24/49/18
f 29/47/5 24/50/5 26/51/5
f 66/52/6 25/53/6 28/54/6
f 31/55/19 34/56/19 33/57/19
f 34/56/20 70/58/20 88/59/20
f 36/60/21 35/61/21 89/62/21
f 36/60/22 31/63/22 35/64/22
f 37/65/5 31/66/5 33/67/5
f 32/68/6 36/60/6 71/69/6
f 40/70/7 77/71/7 78/72/7
f 45/73/9 42/74/9 44/75/9
f 43/76/10 39/77/10 42/74/10
f 78/72/23 77/71/23 76/78/23
f 40/70/6 43/76/6 75/79/6
f 46/80/24 49/81/24 48/82/24
f 49/81/25 80/83/25 79/84/25
f 79/85/26 51/86/26 50/87/26
f 51/86/27 46/80/27 50/87/27
f 52/88/5 46/89/5 48/82/5
f 102/90/6 60/91/6 103/92/6
f 56/93/8 59/94/8 55/95/8
f 60/96/9 57/97/9 59/94/9
f 103/98/7 55/95/7 53/99/7
f 59/94/5 53/99/5 55/95/5
f 64/100/28 61/101/28 63/102/28
f 71/69/29 69/103/29 70/58/29
f 65/45/30 66/52/30 67/104/30
f 75/79/31 73/105/31 74/106/31
f 85/29/32 83/107/32 84/20/32
f 74/106/8 45/108/8 44/109/8
f 42/74/5 78/110/5 44/111/5
f 80/112/6 49/81/6 47/113/6
f 79/85/33 80/114/33 81/115/33
f 89/116/34 87/117/34 88/59/34
f 93/118/35 91/119/35 92/4/35
f 97/10/36 94/120/36 96/121/36
f 101/9/37 99/8/37 100/7/37
f 102/122/38 103/98/38 53/99/38
f 57/97/10 102/123/10 53/99/10
f 90/124/39 93/118/39 92/4/39
f 62/125/40 64/100/40 63/102/40
f 68/126/41 71/69/41 70/58/41
f 72/127/42 75/79/42 74/106/42
f 86/128/43 89/116/43 88/59/43
f 82/129/44 85/29/44 84/20/44
f 98/130/45 101/9/45 100/7/45
f 95/131/46 97/10/46 96/121/46
f 104/132/47 54/30/47 109/133/47
f 54/30/48 108/134/48 109/133/48
f 108/134/49 105/135/49 109/133/49
f 105/135/50 106/136/50 109/133/50
f 106/136/51 107/137/51 109/133/51
f 107/138/52 104/132/52 109/133/52
f 2/1/1 4/139/1 3/2/1
f 7/6/53 3/140/53 92/4/53
f 3/140/54 4/141/54 92/4/54
f 4/141/55 90/124/55 92/4/55
f 92/4/55 91/119/55 8/5/55
f 5/142/9 7/6/9 99/8/9
f 7/6/56 8/5/56 100/7/56
f 100/7/57 8/5/57 64/100/57
f 8/5/58 61/101/58 64/100/58
f 64/100/58 62/125/58 6/143/58
f 6/143/59 98/130/59 64/100/59
f 98/130/60 100/7/60 64/100/60
f 1/3/10 5/142/10 99/8/10
f 101/9/61 98/130/61 97/10/61
f 98/130/62 6/143/62 97/10/62
f 1/3/63 99/8/63 101/9/63
f 95/131/64 2/1/64 97/10/64
f 2/1/65 1/3/65 97/10/65
f 6/143/64 94/120/64 97/10/64
f 7/11/5 5/144/5 1/3/5
f 61/145/6 8/146/6 91/147/6
f 93/13/6 90/148/6 96/14/6
f 90/148/6 4/139/6 96/14/6
f 61/145/6 91/147/6 93/13/6
f 6/149/6 62/150/6 94/151/6
f 62/150/6 63/12/6 94/151/6
f 94/151/6 63/12/6 96/14/6
f 63/12/6 61/145/6 93/13/6
f 4/139/6 2/1/6 96/14/6
f 2/1/6 95/152/6 96/14/6
f 18/32/7 17/153/7 54/30/7
f 54/30/66 104/132/66 19/31/66
f 19/31/12 23/34/12 22/33/12
f 23/34/13 21/154/13 20/35/13
f 17/155/10 20/35/10 54/37/10
f 20/35/67 21/154/67 108/36/67
f 21/154/68 105/156/68 108/36/68
f 22/33/5 20/35/5 17/38/5
f 23/34/6 19/31/6 107/40/6
f 19/31/6 104/157/6 107/40/6
f 105/158/6 21/159/6 106/41/6
f 21/159/6 23/34/6 106/41/6
f 58/160/6 60/91/6 102/90/6
f 60/91/6 56/93/6 103/92/6
f 56/93/8 60/91/8 59/94/8
f 60/96/9 58/161/9 57/97/9
f 103/98/7 56/162/7 55/95/7
f 59/94/5 57/97/5 53/99/5
f 57/97/10 58/163/10 102/123/10
f 46/80/24 47/113/24 49/81/24
f 52/88/8 48/82/8 79/84/8
f 48/82/69 49/81/69 79/84/69
f 50/87/9 52/164/9 79/85/9
f 79/85/70 81/115/70 51/86/70
f 51/86/27 47/113/27 46/80/27
f 52/88/5 50/165/5 46/89/5
f 51/166/6 81/167/6 47/113/6
f 81/167/6 80/112/6 47/113/6
f 10/15/7 12/168/7 11/16/7
f 11/19/8 12/168/8 84/20/8
f 12/168/8 82/129/8 84/20/8
f 84/20/8 83/107/8 15/18/8
f 83/107/8 16/21/8 15/18/8
f 16/21/9 14/24/9 13/22/9
f 14/24/10 10/15/10 9/25/10
f 15/23/5 13/22/5 9/27/5
f 14/24/6 16/21/6 83/107/6
f 85/29/6 82/129/6 12/168/6
f 14/24/6 83/107/6 85/29/6
f 12/168/6 10/15/6 85/29/6
f 31/55/19 32/68/19 34/56/19
f 37/169/8 33/170/8 88/59/8
f 33/170/71 34/56/71 88/59/71
f 34/56/72 68/126/72 70/58/72
f 70/58/72 69/103/72 38/171/72
f 38/171/73 86/128/73 70/58/73
f 86/128/74 88/59/74 70/58/74
f 88/59/8 87/117/8 37/169/8
f 35/61/9 37/65/9 89/62/9
f 37/65/9 87/172/9 89/62/9
f 89/62/75 86/173/75 38/171/75
f 38/171/76 36/60/76 89/62/76
f 36/60/22 32/68/22 31/63/22
f 37/65/5 35/61/5 31/66/5
f 36/60/6 38/171/6 71/69/6
f 38/171/6 69/103/6 71/69/6
f 71/69/6 68/126/6 32/68/6
f 68/126/6 34/56/6 32/68/6
f 78/72/7 39/77/7 40/70/7
f 40/70/7 41/174/7 77/71/7
f 45/73/9 43/76/9 42/74/9
f 43/76/10 40/70/10 39/77/10
f 43/76/6 45/108/6 75/79/6
f 45/108/6 73/105/6 75/79/6
f 75/79/6 72/127/6 41/175/6
f 41/175/6 40/70/6 75/79/6
f 44/109/8 76/176/8 74/106/8
f 76/176/8 77/177/8 74/106/8
f 77/177/8 41/175/8 72/127/8
f 74/106/8 73/105/8 45/108/8
f 77/177/8 72/127/8 74/106/8
f 39/77/5 78/110/5 42/74/5
f 78/110/5 76/178/5 44/111/5
f 26/179/77 24/49/77 65/44/77
f 24/49/78 25/42/78 65/44/78
f 29/47/79 26/180/79 65/45/79
f 65/45/80 67/104/80 30/46/80
f 30/46/17 28/181/17 27/48/17
f 27/48/18 28/181/18 25/42/18
f 29/47/5 27/48/5 24/50/5
f 28/54/6 30/46/6 67/104/6
f 67/104/6 66/52/6 28/54/6
