# Blender v2.78 (sub 0) OBJ File: 'WatchTower.blend'
# www.blender.org
mtllib Human_ Flag1.mtl
g Human__Flag1_Human__Flag.001
v 0.008000 -0.000000 0.308196
v 0.008000 -1.243523 0.237712
v 0.008000 0.000000 -0.308196
v 0.008000 -1.253576 -0.278297
v 0.008000 -0.125798 -0.189841
v 0.008000 -0.187429 0.087511
v 0.008000 -0.091538 0.189841
v 0.008000 -1.717861 0.148107
v 0.008000 -1.702869 -0.107716
v -0.008000 -0.000000 0.308196
v -0.008000 -1.243523 0.237712
v -0.008000 0.000000 -0.308196
v -0.008000 -1.253576 -0.278297
v -0.008000 -0.125798 -0.189841
v -0.008000 -0.187429 0.087511
v -0.008000 -0.091538 0.189841
v -0.008000 -1.717861 0.148107
v -0.008000 -1.702869 -0.107716
v -0.008000 -0.368591 0.058610
v -0.008000 -0.374092 0.004675
v -0.008000 -0.379592 -0.049260
v -0.008000 -0.385092 -0.103194
v -0.008000 -0.390593 -0.157129
v -0.008000 -0.543912 0.077230
v -0.008000 -0.548648 0.016882
v -0.008000 -0.553383 -0.043466
v -0.008000 -0.558119 -0.103814
v -0.008000 -0.562854 -0.164162
v -0.008000 -0.719234 0.095850
v -0.008000 -0.723205 0.029089
v -0.008000 -0.727175 -0.037673
v -0.008000 -0.731145 -0.104434
v -0.008000 -0.735116 -0.171196
v -0.008000 -0.894556 0.114470
v -0.008000 -0.897761 0.041295
v -0.008000 -0.900967 -0.031879
v -0.008000 -0.904172 -0.105054
v -0.008000 -0.907378 -0.178229
v -0.008000 -1.069877 0.133090
v -0.008000 -1.072318 0.053502
v -0.008000 -1.074758 -0.026086
v -0.008000 -1.077199 -0.105674
v -0.008000 -1.079639 -0.185262
v 0.008000 -1.079639 -0.185262
v 0.008000 -1.590546 -0.150361
v 0.008000 -1.478223 -0.193007
v 0.008000 -1.365900 -0.235652
v 0.008000 -1.362107 0.215311
v 0.008000 -1.480692 0.192909
v 0.008000 -1.599277 0.170508
v -0.008000 -1.590546 -0.150361
v -0.008000 -1.478223 -0.193007
v -0.008000 -1.365900 -0.235652
v -0.008000 -1.362107 0.215311
v -0.008000 -1.480692 0.192909
v -0.008000 -1.599277 0.170508
v 0.008000 -1.077199 -0.105674
v 0.008000 -1.074758 -0.026086
v 0.008000 -1.072318 0.053502
v 0.008000 -1.069877 0.133090
v 0.008000 -0.907378 -0.178229
v 0.008000 -0.904172 -0.105054
v 0.008000 -0.900966 -0.031879
v 0.008000 -0.897761 0.041295
v 0.008000 -0.894556 0.114470
v 0.008000 -0.735116 -0.171196
v 0.008000 -0.731145 -0.104434
v 0.008000 -0.727175 -0.037673
v 0.008000 -0.723205 0.029089
v 0.008000 -0.719234 0.095850
v 0.008000 -0.562854 -0.164162
v 0.008000 -0.558119 -0.103814
v 0.008000 -0.553383 -0.043466
v 0.008000 -0.548648 0.016882
v 0.008000 -0.543912 0.077230
v 0.008000 -0.390593 -0.157129
v 0.008000 -0.385092 -0.103194
v 0.008000 -0.379592 -0.049260
v 0.008000 -0.374092 0.004675
v 0.008000 -0.368591 0.058610
v -0.008000 -1.365267 -0.160491
v -0.008000 -1.364635 -0.085331
v -0.008000 -1.364004 -0.010171
v -0.008000 -1.363371 0.064990
v -0.008000 -1.362739 0.140150
v -0.008000 -1.478634 -0.128687
v -0.008000 -1.479046 -0.064368
v -0.008000 -1.479457 -0.000049
v -0.008000 -1.479869 0.064271
v -0.008000 -1.480280 0.128590
v -0.008000 -1.592001 -0.096883
v -0.008000 -1.593456 -0.043405
v -0.008000 -1.594911 0.010073
v -0.008000 -1.596366 0.063552
v -0.008000 -1.597822 0.117030
v 0.008000 -1.592001 -0.096883
v 0.008000 -1.593456 -0.043405
v 0.008000 -1.594911 0.010073
v 0.008000 -1.596366 0.063552
v 0.008000 -1.597822 0.117030
v 0.008000 -1.478634 -0.128687
v 0.008000 -1.479046 -0.064368
v 0.008000 -1.479457 -0.000049
v 0.008000 -1.479869 0.064271
v 0.008000 -1.480280 0.128590
v 0.008000 -1.365267 -0.160491
v 0.008000 -1.364635 -0.085331
v 0.008000 -1.364004 -0.010171
v 0.008000 -1.363371 0.064990
v 0.008000 -1.362739 0.140150
v -0.008000 -1.251901 -0.192295
v -0.008000 -1.250225 -0.106294
v -0.008000 -1.248549 -0.020292
v -0.008000 -1.246874 0.065709
v -0.008000 -1.245198 0.151710
v -0.008000 -1.067436 0.212678
v -0.008000 -0.891350 0.187645
v -0.008000 -0.715263 0.162612
v -0.008000 -0.539177 0.137578
v -0.008000 -0.363091 0.112545
v 0.008000 -1.251901 -0.192295
v 0.008000 -1.250225 -0.106294
v 0.008000 -1.248549 -0.020292
v 0.008000 -1.246874 0.065709
v 0.008000 -1.245198 0.151710
v -0.008000 -1.705368 -0.065079
v -0.008000 -1.707867 -0.022442
v -0.008000 -1.710365 0.020195
v -0.008000 -1.712864 0.062833
v -0.008000 -1.715363 0.105470
v -0.008000 -0.211646 0.041286
v -0.008000 -0.234111 -0.004940
v -0.008000 -0.233225 -0.051165
v -0.008000 -0.203920 -0.097390
v -0.008000 -0.164844 -0.143616
v 0.008000 -1.705368 -0.065079
v 0.008000 -1.707867 -0.022442
v 0.008000 -1.710365 0.020195
v 0.008000 -1.712864 0.062833
v 0.008000 -1.715363 0.105470
v -0.008000 -0.332229 0.199843
v -0.008000 -0.299935 0.291195
v 0.008000 -0.299935 0.291195
v 0.008000 -0.332229 0.199843
v 0.008000 -0.363091 0.112545
v -0.008000 -0.514488 0.207417
v -0.008000 -0.488653 0.280499
v 0.008000 -0.488653 0.280499
v 0.008000 -0.514488 0.207417
v 0.008000 -0.539177 0.137578
v -0.008000 -0.696747 0.214991
v -0.008000 -0.677370 0.269802
v 0.008000 -0.677370 0.269802
v 0.008000 -0.696747 0.214991
v 0.008000 -0.715263 0.162612
v -0.008000 -0.879005 0.222564
v -0.008000 -0.866088 0.259105
v 0.008000 -0.866088 0.259105
v 0.008000 -0.879005 0.222564
v 0.008000 -0.891350 0.187645
v -0.008000 -1.061264 0.230138
v -0.008000 -1.054805 0.248409
v 0.008000 -1.054805 0.248409
v 0.008000 -1.061264 0.230138
v 0.008000 -1.067436 0.212678
v 0.008000 -0.211646 0.041286
v -0.008000 -1.082079 -0.264850
v -0.008000 -1.082670 -0.282373
v 0.008000 -1.082670 -0.282373
v 0.008000 -1.082079 -0.264850
v 0.008000 -0.234111 -0.004940
v -0.008000 -0.910583 -0.251404
v -0.008000 -0.911764 -0.286449
v 0.008000 -0.911764 -0.286449
v 0.008000 -0.910583 -0.251404
v 0.008000 -0.233225 -0.051165
v -0.008000 -0.739087 -0.237957
v -0.008000 -0.740858 -0.290526
v 0.008000 -0.740858 -0.290526
v 0.008000 -0.739087 -0.237957
v 0.008000 -0.203920 -0.097390
v -0.008000 -0.567590 -0.224510
v -0.008000 -0.569951 -0.294602
v 0.008000 -0.569951 -0.294602
v 0.008000 -0.567590 -0.224510
v 0.008000 -0.164844 -0.143616
v -0.008000 -0.396094 -0.211064
v -0.008000 -0.399045 -0.298678
v 0.008000 -0.399045 -0.298678
v 0.008000 -0.396094 -0.211064
v 0.008000 -0.091538 0.189841
v 0.008000 -0.000000 0.308196
v 0.008000 -0.000000 0.308196
v 0.008000 -1.054805 0.248409
v 0.008000 -1.243523 0.237712
v 0.008000 -0.399045 -0.298678
v 0.008000 0.000000 -0.308196
v 0.008000 0.000000 -0.308196
v 0.008000 -0.125798 -0.189841
v 0.008000 -0.187429 0.087511
v 0.008000 -1.365900 -0.235652
v 0.008000 -1.253576 -0.278297
v 0.008000 -1.599277 0.170508
v 0.008000 -1.717861 0.148107
v 0.008000 -1.717861 0.148107
v -0.008000 -0.091538 0.189841
v -0.008000 -0.000000 0.308196
v -0.008000 -0.000000 0.308196
v -0.008000 -1.054805 0.248409
v -0.008000 -1.243523 0.237712
v -0.008000 -0.399045 -0.298678
v -0.008000 0.000000 -0.308196
v -0.008000 0.000000 -0.308196
v -0.008000 -0.125798 -0.189841
v -0.008000 -0.187429 0.087511
v -0.008000 -1.365900 -0.235652
v -0.008000 -1.253576 -0.278297
v -0.008000 -1.599277 0.170508
v -0.008000 -1.717861 0.148107
v -0.008000 -1.717861 0.148107
v 0.008000 -1.702869 -0.107716
v 0.008000 -1.702869 -0.107716
v -0.008000 -1.702869 -0.107716
v -0.008000 -1.702869 -0.107716
v 0.008000 -0.211646 0.041286
v 0.008000 -1.705368 -0.065079
v -0.008000 -0.211646 0.041286
v -0.008000 -1.705368 -0.065079
v 0.008000 -1.590546 -0.150361
v 0.008000 -1.478223 -0.193007
v 0.008000 -1.362107 0.215311
v 0.008000 -1.480692 0.192909
v -0.008000 -1.590546 -0.150361
v -0.008000 -1.478223 -0.193007
v -0.008000 -1.362107 0.215311
v -0.008000 -1.480692 0.192909
v 0.008000 -1.707867 -0.022442
v 0.008000 -1.710365 0.020195
v 0.008000 -1.712864 0.062833
v 0.008000 -1.715363 0.105470
v -0.008000 -0.234111 -0.004940
v -0.008000 -0.233225 -0.051165
v -0.008000 -0.203920 -0.097390
v -0.008000 -0.164844 -0.143616
v -0.008000 -1.707867 -0.022442
v -0.008000 -1.710365 0.020195
v -0.008000 -1.712864 0.062833
v -0.008000 -1.715363 0.105470
v -0.008000 -0.299935 0.291195
v 0.008000 -0.299935 0.291195
v -0.008000 -0.488653 0.280499
v 0.008000 -0.488653 0.280499
v -0.008000 -0.677370 0.269802
v 0.008000 -0.677370 0.269802
v -0.008000 -0.866088 0.259105
v 0.008000 -0.866088 0.259105
v -0.008000 -1.082670 -0.282373
v 0.008000 -1.082670 -0.282373
v 0.008000 -0.234111 -0.004940
v -0.008000 -0.911764 -0.286449
v 0.008000 -0.911764 -0.286449
v 0.008000 -0.233225 -0.051165
v -0.008000 -0.740858 -0.290526
v 0.008000 -0.740858 -0.290526
v 0.008000 -0.203920 -0.097390
v -0.008000 -0.569951 -0.294602
v 0.008000 -0.569951 -0.294602
v 0.008000 -0.164844 -0.143616
vt 0.6009 0.1982
vt 0.5650 0.1954
vt 0.6008 0.1945
vt 0.6066 0.3057
vt 0.5671 0.3034
vt 0.6052 0.3018
vt 0.6040 0.2982
vt 0.4675 0.5535
vt 0.4674 0.5403
vt 0.4908 0.5469
vt 0.4906 0.5624
vt 0.4443 0.5447
vt 0.4440 0.5336
vt 0.6736 0.2178
vt 0.6375 0.2163
vt 0.6368 0.2010
vt 0.6727 0.2039
vt 0.7340 0.5157
vt 0.7343 0.5256
vt 0.7309 0.5263
vt 0.7304 0.5152
vt 0.5492 0.5686
vt 0.5491 0.5722
vt 0.5138 0.5713
vt 0.5551 0.4625
vt 0.5538 0.4662
vt 0.5161 0.4647
vt 0.5525 0.4698
vt 0.4186 0.4918
vt 0.4191 0.5006
vt 0.4158 0.5008
vt 0.4153 0.4920
vt 0.5498 0.5522
vt 0.5142 0.5535
vt 0.5854 0.5508
vt 0.5847 0.5660
vt 0.5889 0.4750
vt 0.5883 0.4902
vt 0.5520 0.4863
vt 0.7769 0.4451
vt 0.7594 0.4710
vt 0.7567 0.4691
vt 0.7742 0.4432
vt 0.7113 0.4478
vt 0.7737 0.4399
vt 0.7742 0.4432
vt 0.7116 0.4511
vt 0.5490 0.5755
vt 0.5137 0.5746
vt 0.5138 0.5713
vt 0.5491 0.5722
vt 0.7530 0.5563
vt 0.7769 0.5832
vt 0.7745 0.5854
vt 0.7504 0.5584
vt 0.5509 0.5192
vt 0.5504 0.5357
vt 0.5146 0.5357
vt 0.5150 0.5180
vt 0.4914 0.4848
vt 0.5157 0.4824
vt 0.5154 0.5002
vt 0.4913 0.5003
vt 0.7422 0.4952
vt 0.7392 0.4935
vt 0.6760 0.2598
vt 0.6395 0.2623
vt 0.6388 0.2470
vt 0.6752 0.2458
vt 0.4431 0.5478
vt 0.4199 0.5389
vt 0.4211 0.5358
vt 0.4443 0.5447
vt 0.4910 0.4660
vt 0.5155 0.4614
vt 0.5161 0.4647
vt 0.4916 0.4693
vt 0.6744 0.2318
vt 0.6382 0.2317
vt 0.4206 0.5270
vt 0.4211 0.5358
vt 0.4178 0.5360
vt 0.4173 0.5272
vt 0.6769 0.2737
vt 0.6402 0.2776
vt 0.6777 0.2877
vt 0.6408 0.2930
vt 0.5514 0.5028
vt 0.7455 0.5462
vt 0.7428 0.5481
vt 0.5869 0.5205
vt 0.5862 0.5357
vt 0.5876 0.5054
vt 0.4201 0.5182
vt 0.4168 0.5184
vt 0.4196 0.5094
vt 0.4163 0.5096
vt 0.5667 0.2854
vt 0.6035 0.2815
vt 0.4181 0.4830
vt 0.4148 0.4832
vt 0.7387 0.5360
vt 0.7358 0.5375
vt 0.4942 0.2333
vt 0.4704 0.2400
vt 0.4709 0.2311
vt 0.4945 0.2221
vt 0.5176 0.2671
vt 0.5175 0.2805
vt 0.4929 0.2781
vt 0.4932 0.2669
vt 0.6029 0.2649
vt 0.7848 0.2333
vt 0.7468 0.2321
vt 0.7457 0.2208
vt 0.7930 0.2236
vt 0.6019 0.2315
vt 0.5657 0.2314
vt 0.5654 0.2134
vt 0.6014 0.2149
vt 0.4437 0.5226
vt 0.4435 0.5116
vt 0.4673 0.5137
vt 0.4673 0.5270
vt 0.5423 0.2987
vt 0.5421 0.2830
vt 0.4211 0.5358
vt 0.4206 0.5270
vt 0.4432 0.5005
vt 0.4429 0.4895
vt 0.4672 0.4871
vt 0.4672 0.5004
vt 0.4196 0.5094
vt 0.4191 0.5006
vt 0.4201 0.5182
vt 0.5661 0.2494
vt 0.5419 0.2515
vt 0.5418 0.2358
vt 0.5416 0.2200
vt 0.5415 0.2043
vt 0.5664 0.2674
vt 0.5420 0.2672
vt 0.4186 0.4918
vt 0.4181 0.4830
vt 0.4426 0.4784
vt 0.4688 0.2668
vt 0.4694 0.2578
vt 0.4935 0.2557
vt 0.4683 0.2757
vt 0.4926 0.2893
vt 0.4678 0.2846
vt 0.4916 0.4693
vt 0.4938 0.2445
vt 0.4699 0.2489
vt 0.4910 0.5314
vt 0.4911 0.5158
vt 0.4175 0.4798
vt 0.4420 0.4752
vt 0.4426 0.4784
vt 0.4181 0.4830
vt 0.4665 0.4706
vt 0.4671 0.4739
vt 0.5126 0.5743
vt 0.4895 0.5655
vt 0.4906 0.5624
vt 0.4663 0.5566
vt 0.4675 0.5535
vt 0.4671 0.4739
vt 0.5174 0.2940
vt 0.7445 0.2095
vt 0.8011 0.2140
vt 0.6024 0.2482
vt 0.7373 0.5053
vt 0.7341 0.5040
vt 0.7882 0.2720
vt 0.7514 0.2773
vt 0.7503 0.2660
vt 0.7831 0.2624
vt 0.7491 0.2547
vt 0.7784 0.2527
vt 0.7480 0.2434
vt 0.7786 0.2430
vt 0.5180 0.2132
vt 0.5179 0.2267
vt 0.5177 0.2536
vt 0.5178 0.2401
vt 0.7146 0.2825
vt 0.7136 0.2699
vt 0.7106 0.2320
vt 0.7096 0.2193
vt 0.7116 0.2446
vt 0.7126 0.2572
vt 0.7428 0.5481
vt 0.7504 0.5584
vt 0.6921 0.5593
vt 0.6937 0.5478
vt 0.6584 0.5359
vt 0.6572 0.5486
vt 0.6212 0.5496
vt 0.6221 0.5357
vt 0.6595 0.5232
vt 0.6230 0.5218
vt 0.6605 0.5105
vt 0.6239 0.5079
vt 0.6615 0.4978
vt 0.6247 0.4940
vt 0.6624 0.4851
vt 0.6255 0.4801
vt 0.7358 0.5375
vt 0.6953 0.5363
vt 0.7304 0.5152
vt 0.7309 0.5263
vt 0.6967 0.5248
vt 0.6980 0.5132
vt 0.7086 0.2067
vt 0.7341 0.5040
vt 0.6990 0.5016
vt 0.8083 0.2935
vt 0.7579 0.2955
vt 0.8274 0.3183
vt 0.7646 0.3147
vt 0.6721 0.4516
vt 0.6723 0.4550
vt 0.7742 0.4432
vt 0.7567 0.4691
vt 0.7058 0.4709
vt 0.7116 0.4511
vt 0.7392 0.4935
vt 0.6999 0.4898
vt 0.7197 0.2971
vt 0.7251 0.3124
vt 0.6330 0.4545
vt 0.6332 0.4578
vt 0.6673 0.4703
vt 0.6723 0.4550
vt 0.6816 0.2987
vt 0.6856 0.3102
vt 0.5939 0.4569
vt 0.5941 0.4602
vt 0.6293 0.4692
vt 0.6332 0.4578
vt 0.6434 0.3003
vt 0.6461 0.3079
vt 0.5549 0.4592
vt 0.5551 0.4625
vt 0.5915 0.4678
vt 0.5941 0.4602
vt 0.5159 0.4614
vt 0.6366 0.1937
vt 0.5843 0.5765
vt 0.5844 0.5732
vt 0.5844 0.5732
vt 0.6202 0.5635
vt 0.6724 0.1928
vt 0.6196 0.5777
vt 0.6197 0.5744
vt 0.6197 0.5744
vt 0.6559 0.5612
vt 0.7082 0.1920
vt 0.6550 0.5791
vt 0.6551 0.5757
vt 0.6551 0.5757
vt 0.7439 0.1912
vt 0.6904 0.5810
vt 0.6906 0.5777
vt 0.6906 0.5777
vt 0.8275 0.1892
vt 0.7742 0.5888
vt 0.7745 0.5854
vt 0.7745 0.5854
vn 1.0000 0.0000 0.0000
vn -1.0000 0.0000 0.0000
vn 0.0000 0.9766 -0.2149
vn 0.0000 0.9576 0.2879
vn 0.0000 -0.9983 -0.0585
vn 0.0000 0.7910 -0.6118
vn 0.0000 0.7612 -0.6485
vn 0.0000 -0.0566 0.9984
vn 0.0000 -0.0238 -0.9997
vn 0.0000 -0.1921 -0.9814
vn 0.0000 0.7258 0.6879
vn 0.0000 0.6852 0.7283
vn 0.0000 0.8152 -0.5792
vn 0.0000 -0.3549 -0.9349
vn 0.0000 -0.1856 0.9826
vn 0.0000 -0.1214 0.9926
vn 0.0000 0.7638 0.6454
vn 0.0000 0.8060 0.5919
vn 0.0000 0.8927 -0.4506
usemtl Human__Flag
s 1
f 170/1/1 202/2/1 258/3/1
f 194/4/1 195/5/1 164/6/1
f 164/6/1 195/5/1 165/7/1
f 234/8/2 86/9/2 81/10/2 216/11/2
f 51/12/2 91/13/2 86/9/2 234/8/2
f 66/14/1 61/15/1 175/16/1 180/17/1
f 259/18/3 262/19/4 242/20/4 241/21/3
f 167/22/2 257/23/2 217/24/2
f 209/25/2 161/26/2 210/27/2
f 161/26/2 116/28/2 210/27/2
f 248/29/5 247/30/5 239/31/5 240/32/5
f 43/33/2 167/22/2 217/24/2 111/34/2
f 38/35/2 172/36/2 167/22/2 43/33/2
f 117/37/2 34/38/2 39/39/2 116/28/2
f 192/40/6 191/41/7 206/42/7 207/43/6
f 250/44/8 193/45/8 208/46/8 249/47/8
f 169/48/9 4/49/10 13/50/10 168/51/9
f 199/52/11 198/53/12 213/54/12 214/55/11
f 41/56/2 42/57/2 112/58/2 113/59/2
f 85/60/2 115/61/2 114/62/2 84/63/2
f 191/41/7 200/64/13 215/65/13 206/42/7
f 69/66/1 64/67/1 63/68/1 68/69/1
f 229/70/14 221/71/14 223/72/14 233/73/14
f 231/74/15 2/75/16 11/76/16 235/77/15
f 67/78/1 62/79/1 61/15/1 66/14/1
f 228/80/5 224/81/5 222/82/5 226/83/5
f 70/84/1 65/85/1 64/67/1 69/66/1
f 68/69/1 63/68/1 62/79/1 67/78/1
f 155/86/1 160/87/1 65/85/1 70/84/1
f 42/57/2 43/33/2 111/34/2 112/58/2
f 40/88/2 41/56/2 113/59/2 114/62/2
f 39/39/2 40/88/2 114/62/2 115/61/2
f 268/89/17 199/52/11 214/55/11 244/90/17
f 36/91/2 37/92/2 42/57/2 41/56/2
f 116/28/2 39/39/2 115/61/2 210/27/2
f 35/93/2 36/91/2 41/56/2 40/88/2
f 81/10/2 111/34/2 217/24/2 216/11/2
f 34/38/2 35/93/2 40/88/2 39/39/2
f 245/94/5 228/80/5 226/83/5 237/95/5
f 246/96/5 245/94/5 237/95/5 238/97/5
f 165/7/1 195/5/1 125/98/1 60/99/1
f 220/100/5 248/29/5 240/32/5 205/101/5
f 247/30/5 246/96/5 238/97/5 239/31/5
f 265/102/18 268/89/17 244/90/17 243/103/18
f 96/104/1 136/105/1 9/106/1 45/107/1
f 104/108/1 105/109/1 100/110/1 99/111/1
f 59/112/1 64/67/1 65/85/1 60/99/1
f 181/113/1 77/114/1 76/115/1 186/116/1
f 57/117/1 122/118/1 121/119/1 44/120/1
f 92/121/2 93/122/2 88/123/2 87/124/2
f 91/13/2 92/121/2 87/124/2 86/9/2
f 125/98/1 195/5/1 48/125/1 110/126/1
f 18/127/2 126/128/2 91/13/2 51/12/2
f 94/129/2 95/130/2 90/131/2 89/132/2
f 93/122/2 94/129/2 89/132/2 88/123/2
f 128/133/2 129/134/2 94/129/2 93/122/2
f 127/135/2 128/133/2 93/122/2 92/121/2
f 126/128/2 127/135/2 92/121/2 91/13/2
f 122/118/1 123/136/1 108/137/1 107/138/1
f 121/119/1 122/118/1 107/138/1 106/139/1
f 202/2/1 121/119/1 106/139/1 201/140/1
f 124/141/1 125/98/1 110/126/1 109/142/1
f 123/136/1 124/141/1 109/142/1 108/137/1
f 130/143/2 219/144/2 218/145/2 95/130/2
f 99/111/1 139/146/1 138/147/1 98/148/1
f 100/110/1 140/149/1 139/146/1 99/111/1
f 203/150/1 204/151/1 140/149/1 100/110/1
f 54/152/2 210/27/2 115/61/2 85/60/2
f 97/153/1 137/154/1 136/105/1 96/104/1
f 98/148/1 138/147/1 137/154/1 97/153/1
f 82/155/2 112/58/2 111/34/2 81/10/2
f 83/156/2 113/59/2 112/58/2 82/155/2
f 84/63/2 114/62/2 113/59/2 83/156/2
f 8/157/15 50/158/15 56/159/15 17/160/15
f 50/158/15 232/161/15 236/162/15 56/159/15
f 232/161/15 231/74/15 235/77/15 236/162/15
f 4/163/10 47/164/14 53/165/14 13/50/10
f 47/164/14 230/166/14 52/167/14 53/165/14
f 230/166/14 229/70/14 233/73/14 52/167/14
f 95/130/2 218/145/2 55/168/2 90/131/2
f 90/131/2 55/168/2 54/152/2 85/60/2
f 129/134/2 130/143/2 95/130/2 94/129/2
f 110/126/1 48/125/1 49/169/1 105/109/1
f 105/109/1 49/169/1 203/150/1 100/110/1
f 60/99/1 65/85/1 160/87/1 165/7/1
f 186/116/1 76/115/1 190/170/1 5/171/1
f 44/120/1 121/119/1 202/2/1 170/1/1
f 60/99/1 125/98/1 124/141/1 59/112/1
f 59/112/1 124/141/1 123/136/1 58/172/1
f 58/172/1 123/136/1 122/118/1 57/117/1
f 200/64/13 225/173/19 227/174/19 215/65/13
f 6/175/1 145/176/1 80/177/1 166/178/1
f 166/178/1 80/177/1 79/179/1 171/180/1
f 171/180/1 79/179/1 78/181/1 176/182/1
f 176/182/1 78/181/1 77/114/1 181/113/1
f 225/173/19 259/18/3 241/21/3 227/174/19
f 170/1/1 175/16/1 61/15/1 44/120/1
f 44/120/1 61/15/1 62/79/1 57/117/1
f 57/117/1 62/79/1 63/68/1 58/172/1
f 58/172/1 63/68/1 64/67/1 59/112/1
f 46/183/1 101/184/1 96/104/1 45/107/1
f 107/138/1 108/137/1 103/185/1 102/186/1
f 102/186/1 103/185/1 98/148/1 97/153/1
f 109/142/1 110/126/1 105/109/1 104/108/1
f 86/9/2 87/124/2 82/155/2 81/10/2
f 145/176/1 150/187/1 75/188/1 80/177/1
f 88/123/2 89/132/2 84/63/2 83/156/2
f 70/84/1 75/188/1 150/187/1 155/86/1
f 77/114/1 72/189/1 71/190/1 76/115/1
f 78/181/1 73/191/1 72/189/1 77/114/1
f 79/179/1 74/192/1 73/191/1 78/181/1
f 80/177/1 75/188/1 74/192/1 79/179/1
f 135/193/2 14/194/2 187/195/2 23/196/2
f 27/197/2 28/198/2 33/199/2 32/200/2
f 26/201/2 27/197/2 32/200/2 31/202/2
f 25/203/2 26/201/2 31/202/2 30/204/2
f 24/205/2 25/203/2 30/204/2 29/206/2
f 119/207/2 24/205/2 29/206/2 118/208/2
f 32/200/2 33/199/2 38/35/2 37/92/2
f 134/209/2 135/193/2 23/196/2 22/210/2
f 30/204/2 31/202/2 36/91/2 35/93/2
f 132/211/2 133/212/2 21/213/2 20/214/2
f 118/208/2 29/206/2 34/38/2 117/37/2
f 180/17/1 185/215/1 71/190/1 66/14/1
f 31/202/2 32/200/2 37/92/2 36/91/2
f 133/212/2 134/209/2 22/210/2 21/213/2
f 29/206/2 30/204/2 35/93/2 34/38/2
f 131/216/2 132/211/2 20/214/2 19/217/2
f 66/14/1 71/190/1 72/189/1 67/78/1
f 20/214/2 21/213/2 26/201/2 25/203/2
f 68/69/1 73/191/1 74/192/1 69/66/1
f 22/210/2 23/196/2 28/198/2 27/197/2
f 7/218/1 144/219/1 145/176/1 6/175/1
f 1/220/1 143/221/1 144/219/1 7/218/1
f 252/222/8 250/44/8 249/47/8 251/223/8
f 10/224/2 16/225/2 141/226/2 142/227/2
f 16/225/2 15/228/2 120/229/2 141/226/2
f 144/219/1 149/230/1 150/187/1 145/176/1
f 143/221/1 148/231/1 149/230/1 144/219/1
f 254/232/8 252/222/8 251/223/8 253/233/8
f 142/227/2 141/226/2 146/234/2 147/235/2
f 141/226/2 120/229/2 119/207/2 146/234/2
f 106/139/1 107/138/1 102/186/1 101/184/1
f 149/230/1 154/236/1 155/86/1 150/187/1
f 148/231/1 153/237/1 154/236/1 149/230/1
f 256/238/8 254/232/8 253/233/8 255/239/8
f 147/235/2 146/234/2 151/240/2 152/241/2
f 146/234/2 119/207/2 118/208/2 151/240/2
f 101/184/1 102/186/1 97/153/1 96/104/1
f 154/236/1 159/242/1 160/87/1 155/86/1
f 153/237/1 158/243/1 159/242/1 154/236/1
f 163/244/8 256/238/8 255/239/8 162/245/8
f 152/241/2 151/240/2 156/246/2 157/247/2
f 151/240/2 118/208/2 117/37/2 156/246/2
f 108/137/1 109/142/1 104/108/1 103/185/1
f 159/242/1 164/6/1 165/7/1 160/87/1
f 158/243/1 194/4/1 164/6/1 159/242/1
f 2/248/16 163/244/8 162/245/8 11/76/16
f 157/247/2 156/246/2 161/26/2 209/25/2
f 156/246/2 117/37/2 116/28/2 161/26/2
f 103/185/1 104/108/1 99/111/1 98/148/1
f 175/16/1 170/1/1 258/3/1 261/249/1
f 174/250/9 169/48/9 168/51/9 260/251/9
f 172/36/2 173/252/2 257/23/2 167/22/2
f 33/199/2 177/253/2 172/36/2 38/35/2
f 69/66/1 74/192/1 75/188/1 70/84/1
f 89/132/2 90/131/2 85/60/2 84/63/2
f 180/17/1 175/16/1 261/249/1 264/254/1
f 179/255/9 174/250/9 260/251/9 263/256/9
f 177/253/2 178/257/2 173/252/2 172/36/2
f 28/198/2 182/258/2 177/253/2 33/199/2
f 21/213/2 22/210/2 27/197/2 26/201/2
f 76/115/1 71/190/1 185/215/1 190/170/1
f 185/215/1 180/17/1 264/254/1 267/259/1
f 184/260/9 179/255/9 263/256/9 266/261/9
f 182/258/2 183/262/2 178/257/2 177/253/2
f 23/196/2 187/195/2 182/258/2 28/198/2
f 67/78/1 72/189/1 73/191/1 68/69/1
f 87/124/2 88/123/2 83/156/2 82/155/2
f 190/170/1 185/215/1 267/259/1 196/263/1
f 189/264/9 184/260/9 266/261/9 211/265/9
f 187/195/2 188/266/2 183/262/2 182/258/2
f 120/229/2 19/217/2 24/205/2 119/207/2
f 15/228/2 131/216/2 19/217/2 120/229/2
f 201/140/1 106/139/1 101/184/1 46/183/1
f 5/171/1 190/170/1 196/263/1 197/267/1
f 3/268/9 189/264/9 211/265/9 212/269/9
f 14/194/2 12/270/2 188/266/2 187/195/2
f 19/217/2 20/214/2 25/203/2 24/205/2
f 262/19/4 265/102/18 243/103/18 242/20/4
f 37/92/2 38/35/2 43/33/2 42/57/2
