# Blender v2.78 (sub 0) OBJ File: 'WatchTower.blend'
# www.blender.org
mtllib Human_ Flag2.mtl
g Human__Flag2
v 0.008000 0.004945 0.308196
v 0.008000 -2.853147 0.257458
v 0.008000 -0.004944 -0.308196
v 0.008000 -2.818095 -0.257458
v 0.008000 -2.833117 -0.036780
v 0.008000 -2.838125 0.036780
v 0.008000 -2.843132 0.110339
v 0.008000 -2.848139 0.183898
v 0.008000 -0.095597 0.220140
v 0.008000 -3.317846 0.126768
v 0.008000 -3.280569 -0.126768
v -0.008000 0.004945 0.308196
v -0.008000 -2.853147 0.257458
v -0.008000 -0.004944 -0.308196
v -0.008000 -2.818095 -0.257458
v 0.008000 -0.184601 0.132084
v 0.008000 -0.248882 0.044028
v 0.008000 -0.248882 -0.044028
v 0.008000 -0.184601 -0.132084
v 0.008000 -0.118672 -0.220140
v -0.008000 -3.317846 0.126768
v -0.008000 -3.280569 -0.126768
v 0.008000 -2.828110 -0.110339
v 0.008000 -2.823102 -0.183898
v 0.008000 -3.312521 0.090549
v 0.008000 -3.307196 0.054329
v 0.008000 -3.301870 0.018110
v 0.008000 -3.296545 -0.018110
v 0.008000 -3.291220 -0.054329
v 0.008000 -3.285894 -0.090549
v -0.008000 -0.118672 -0.220140
v -0.008000 -0.184601 -0.132084
v -0.008000 -0.248882 -0.044028
v -0.008000 -0.248882 0.044028
v -0.008000 -0.184601 0.132084
v -0.008000 -0.095597 0.220140
v -0.008000 -2.848139 0.183898
v -0.008000 -2.843132 0.110339
v -0.008000 -2.838125 0.036780
v -0.008000 -2.833117 -0.036780
v -0.008000 -2.828110 -0.110339
v -0.008000 -2.823102 -0.183898
v -0.008000 -3.312521 0.090549
v -0.008000 -3.307196 0.054329
v -0.008000 -3.301870 0.018110
v -0.008000 -3.296545 -0.018110
v -0.008000 -3.291220 -0.054329
v -0.008000 -3.285894 -0.090549
v 0.008000 -0.574415 0.301854
v 0.008000 -0.899948 0.295511
v 0.008000 -1.225481 0.289169
v 0.008000 -1.551014 0.282827
v 0.008000 -1.876547 0.276485
v 0.008000 -2.202080 0.270142
v 0.008000 -2.527614 0.263800
v 0.008000 -2.496943 -0.263800
v 0.008000 -2.175792 -0.270142
v 0.008000 -1.854640 -0.276484
v 0.008000 -1.533489 -0.282827
v 0.008000 -1.212337 -0.289169
v 0.008000 -0.891185 -0.295511
v 0.008000 -0.570034 -0.301854
v -0.008000 -0.574415 0.301854
v -0.008000 -0.899948 0.295511
v -0.008000 -1.225481 0.289169
v -0.008000 -1.551014 0.282827
v -0.008000 -1.876547 0.276485
v -0.008000 -2.202080 0.270142
v -0.008000 -2.527614 0.263800
v -0.008000 -2.496943 -0.263800
v -0.008000 -2.175792 -0.270142
v -0.008000 -1.854640 -0.276484
v -0.008000 -1.533489 -0.282827
v -0.008000 -1.212337 -0.289169
v -0.008000 -0.891185 -0.295511
v -0.008000 -0.570034 -0.301854
v -0.008000 -0.573789 0.215610
v -0.008000 -0.898697 0.211080
v -0.008000 -1.223604 0.206549
v -0.008000 -1.548511 0.202019
v -0.008000 -1.873418 0.197489
v -0.008000 -2.198325 0.192959
v -0.008000 -2.523232 0.188429
v -0.008000 -0.573164 0.129366
v -0.008000 -0.897445 0.126648
v -0.008000 -1.221726 0.123930
v -0.008000 -1.546007 0.121211
v -0.008000 -1.870288 0.118493
v -0.008000 -2.194570 0.115775
v -0.008000 -2.518851 0.113057
v -0.008000 -0.572538 0.043122
v -0.008000 -0.896193 0.042216
v -0.008000 -1.219848 0.041310
v -0.008000 -1.543504 0.040404
v -0.008000 -1.867159 0.039498
v -0.008000 -2.190814 0.038592
v -0.008000 -2.514470 0.037686
v -0.008000 -0.571912 -0.043122
v -0.008000 -0.894941 -0.042216
v -0.008000 -1.217970 -0.041310
v -0.008000 -1.541000 -0.040404
v -0.008000 -1.864029 -0.039498
v -0.008000 -2.187059 -0.038592
v -0.008000 -2.510088 -0.037686
v -0.008000 -0.571286 -0.129366
v -0.008000 -0.893689 -0.126648
v -0.008000 -1.216093 -0.123930
v -0.008000 -1.538496 -0.121211
v -0.008000 -1.860900 -0.118493
v -0.008000 -2.183303 -0.115775
v -0.008000 -2.505707 -0.113057
v -0.008000 -0.570660 -0.215610
v -0.008000 -0.892437 -0.211080
v -0.008000 -1.214215 -0.206549
v -0.008000 -1.535992 -0.202019
v -0.008000 -1.857770 -0.197489
v -0.008000 -2.179548 -0.192959
v -0.008000 -2.501325 -0.188428
v 0.008000 -0.570660 -0.215610
v 0.008000 -0.892437 -0.211080
v 0.008000 -1.214215 -0.206549
v 0.008000 -1.535992 -0.202019
v 0.008000 -1.857770 -0.197489
v 0.008000 -2.179548 -0.192959
v 0.008000 -2.501325 -0.188428
v 0.008000 -0.571286 -0.129366
v 0.008000 -0.893689 -0.126648
v 0.008000 -1.216093 -0.123930
v 0.008000 -1.538496 -0.121211
v 0.008000 -1.860900 -0.118493
v 0.008000 -2.183303 -0.115775
v 0.008000 -2.505707 -0.113057
v 0.008000 -0.571912 -0.043122
v 0.008000 -0.894941 -0.042216
v 0.008000 -1.217970 -0.041310
v 0.008000 -1.541000 -0.040404
v 0.008000 -1.864029 -0.039498
v 0.008000 -2.187059 -0.038592
v 0.008000 -2.510088 -0.037686
v 0.008000 -0.572538 0.043122
v 0.008000 -0.896193 0.042216
v 0.008000 -1.219848 0.041310
v 0.008000 -1.543504 0.040404
v 0.008000 -1.867159 0.039498
v 0.008000 -2.190814 0.038592
v 0.008000 -2.514470 0.037686
v 0.008000 -0.573164 0.129366
v 0.008000 -0.897445 0.126648
v 0.008000 -1.221726 0.123930
v 0.008000 -1.546007 0.121211
v 0.008000 -1.870288 0.118493
v 0.008000 -2.194570 0.115775
v 0.008000 -2.518851 0.113057
v 0.008000 -0.573789 0.215610
v 0.008000 -0.898697 0.211080
v 0.008000 -1.223604 0.206549
v 0.008000 -1.548511 0.202019
v 0.008000 -1.873418 0.197489
v 0.008000 -2.198325 0.192959
v 0.008000 -2.523232 0.188429
v 0.008000 -0.184601 0.132084
v 0.008000 -0.095597 0.220140
v 0.008000 -2.527614 0.263800
v 0.008000 -2.853147 0.257458
v 0.008000 -0.570034 -0.301854
v 0.008000 -0.004944 -0.308196
v 0.008000 -0.004944 -0.308196
v 0.008000 0.004945 0.308196
v 0.008000 0.004945 0.308196
v 0.008000 -3.285894 -0.090549
v 0.008000 -3.280569 -0.126768
v 0.008000 -3.280569 -0.126768
v 0.008000 -2.818095 -0.257458
v 0.008000 -3.317846 0.126768
v 0.008000 -3.317846 0.126768
v 0.008000 -0.118672 -0.220140
v -0.008000 -2.527614 0.263800
v -0.008000 -2.853147 0.257458
v -0.008000 -0.570034 -0.301854
v -0.008000 -0.004944 -0.308196
v -0.008000 -0.004944 -0.308196
v 0.008000 -0.248882 0.044028
v 0.008000 -0.248882 -0.044028
v 0.008000 -0.184601 -0.132084
v -0.008000 -0.095597 0.220140
v -0.008000 0.004945 0.308196
v -0.008000 0.004945 0.308196
v -0.008000 -3.285894 -0.090549
v -0.008000 -3.280569 -0.126768
v -0.008000 -3.280569 -0.126768
v -0.008000 -2.818095 -0.257458
v -0.008000 -3.317846 0.126768
v -0.008000 -3.317846 0.126768
v 0.008000 -3.307196 0.054329
v 0.008000 -3.301870 0.018110
v 0.008000 -3.312521 0.090549
v 0.008000 -3.296545 -0.018110
v 0.008000 -3.291220 -0.054329
v -0.008000 -0.118672 -0.220140
v -0.008000 -0.184601 -0.132084
v -0.008000 -0.248882 -0.044028
v -0.008000 -0.248882 0.044028
v -0.008000 -0.184601 0.132084
v -0.008000 -3.312521 0.090549
v -0.008000 -3.307196 0.054329
v -0.008000 -3.301870 0.018110
v -0.008000 -3.296545 -0.018110
v -0.008000 -3.291220 -0.054329
v 0.008000 -0.574415 0.301854
v 0.008000 -0.899948 0.295511
v 0.008000 -1.225481 0.289169
v 0.008000 -1.551014 0.282827
v 0.008000 -1.876547 0.276485
v 0.008000 -2.202080 0.270142
v 0.008000 -2.496943 -0.263800
v 0.008000 -2.175792 -0.270142
v 0.008000 -1.854640 -0.276484
v 0.008000 -1.533489 -0.282827
v 0.008000 -1.212337 -0.289169
v 0.008000 -0.891185 -0.295511
v -0.008000 -0.574415 0.301854
v -0.008000 -0.899948 0.295511
v -0.008000 -1.225481 0.289169
v -0.008000 -1.551014 0.282827
v -0.008000 -1.876547 0.276485
v -0.008000 -2.202080 0.270142
v -0.008000 -2.496943 -0.263800
v -0.008000 -2.175792 -0.270142
v -0.008000 -1.854640 -0.276484
v -0.008000 -1.533489 -0.282827
v -0.008000 -1.212337 -0.289169
v -0.008000 -0.891185 -0.295511
vt 0.1664 0.9648
vt 0.1654 0.9805
vt 0.0972 0.9784
vt 0.0984 0.9630
vt 0.0002 0.9500
vt 0.0014 0.9424
vt 0.1718 0.8234
vt 0.1725 0.8390
vt 0.1061 0.8370
vt 0.1052 0.8217
vt 0.1008 0.7456
vt 0.0045 0.7639
vt 0.0035 0.7564
vt 0.1000 0.7303
vt 0.0074 0.8093
vt 0.0064 0.8018
vt 0.0097 0.8014
vt 0.0107 0.8089
vt 0.5718 0.7216
vt 0.6950 0.7140
vt 0.6952 0.7174
vt 0.5720 0.7249
vt 0.1724 0.8423
vt 0.1060 0.8403
vt 0.1061 0.8370
vt 0.1725 0.8390
vt 0.0043 0.7868
vt 0.0033 0.7793
vt 0.0066 0.7789
vt 0.0076 0.7864
vt 0.0023 0.7718
vt 0.0013 0.7643
vt 0.0045 0.7639
vt 0.0056 0.7714
vt 0.0053 0.7943
vt 0.0086 0.7939
vt 0.6782 0.7393
vt 0.6758 0.7371
vt 0.6952 0.7174
vt 0.6975 0.7197
vt 0.0002 0.7568
vt 0.0035 0.7564
vt 0.1052 0.8401
vt 0.0097 0.8121
vt 0.0107 0.8089
vt 0.0027 0.7532
vt 0.0991 0.7271
vt 0.1000 0.7303
vt 0.0035 0.7564
vt 0.6975 0.8603
vt 0.6951 0.8627
vt 0.6724 0.8412
vt 0.6751 0.8389
vt 0.6585 0.8210
vt 0.6614 0.8192
vt 0.6473 0.7992
vt 0.6509 0.7984
vt 0.6476 0.7781
vt 0.6511 0.7790
vt 0.6591 0.7570
vt 0.6618 0.7588
vt 0.0107 0.8089
vt 0.0097 0.8014
vt 0.0086 0.7939
vt 0.1043 0.8065
vt 0.0076 0.7864
vt 0.1035 0.7913
vt 0.0066 0.7789
vt 0.1026 0.7760
vt 0.0056 0.7714
vt 0.1017 0.7608
vt 0.1673 0.7297
vt 0.1681 0.7453
vt 0.1688 0.7609
vt 0.1696 0.7765
vt 0.1703 0.7922
vt 0.1710 0.8078
vt 0.1058 0.8707
vt 0.1045 0.8861
vt 0.0074 0.9046
vt 0.0086 0.8970
vt 0.1033 0.9015
vt 0.0062 0.9121
vt 0.1021 0.9169
vt 0.0050 0.9197
vt 0.1009 0.9323
vt 0.0038 0.9273
vt 0.0997 0.9477
vt 0.0026 0.9348
vt 0.1730 0.8701
vt 0.1719 0.8859
vt 0.1708 0.9017
vt 0.1697 0.9175
vt 0.1686 0.9332
vt 0.1675 0.9490
vt 0.6562 0.9585
vt 0.6746 0.9771
vt 0.5745 0.9750
vt 0.5748 0.9570
vt 0.5065 0.9733
vt 0.5070 0.9556
vt 0.4385 0.9716
vt 0.4391 0.9543
vt 0.3705 0.9699
vt 0.3712 0.9530
vt 0.3025 0.9682
vt 0.3033 0.9517
vt 0.2345 0.9665
vt 0.2354 0.9503
vt 0.6429 0.9399
vt 0.5752 0.9389
vt 0.5074 0.9380
vt 0.4397 0.9370
vt 0.3719 0.9361
vt 0.3042 0.9351
vt 0.2364 0.9342
vt 0.6431 0.9214
vt 0.5755 0.9209
vt 0.5079 0.9203
vt 0.4403 0.9197
vt 0.3726 0.9192
vt 0.3050 0.9186
vt 0.2374 0.9180
vt 0.6568 0.9032
vt 0.5758 0.9028
vt 0.5083 0.9026
vt 0.4408 0.9024
vt 0.3733 0.9022
vt 0.3058 0.9021
vt 0.2383 0.9019
vt 0.6708 0.8849
vt 0.5762 0.8848
vt 0.5088 0.8849
vt 0.4414 0.8851
vt 0.3741 0.8853
vt 0.3067 0.8855
vt 0.2393 0.8857
vt 0.6948 0.8667
vt 0.5765 0.8667
vt 0.5093 0.8673
vt 0.4420 0.8678
vt 0.3748 0.8684
vt 0.3075 0.8690
vt 0.2403 0.8696
vt 0.6585 0.8210
vt 0.6724 0.8412
vt 0.5724 0.8341
vt 0.5729 0.8155
vt 0.5049 0.8318
vt 0.5050 0.8142
vt 0.4382 0.8300
vt 0.4380 0.8129
vt 0.3715 0.8283
vt 0.3712 0.8116
vt 0.3049 0.8267
vt 0.3045 0.8103
vt 0.2384 0.8250
vt 0.2378 0.8090
vt 0.6473 0.7992
vt 0.5731 0.7976
vt 0.5050 0.7967
vt 0.4378 0.7957
vt 0.3709 0.7948
vt 0.3040 0.7939
vt 0.2371 0.7930
vt 0.6476 0.7781
vt 0.5731 0.7794
vt 0.5049 0.7791
vt 0.4376 0.7786
vt 0.3705 0.7781
vt 0.3035 0.7776
vt 0.2365 0.7771
vt 0.6591 0.7570
vt 0.5729 0.7615
vt 0.5047 0.7615
vt 0.4373 0.7615
vt 0.3702 0.7614
vt 0.3030 0.7612
vt 0.2359 0.7611
vt 0.6758 0.7371
vt 0.5725 0.7432
vt 0.5045 0.7440
vt 0.4371 0.7444
vt 0.3698 0.7446
vt 0.3026 0.7449
vt 0.2353 0.7451
vt 0.6952 0.7174
vt 0.5720 0.7249
vt 0.5043 0.7264
vt 0.4369 0.7273
vt 0.3695 0.7279
vt 0.3021 0.7285
vt 0.2347 0.7291
vt 0.6948 0.8662
vt 0.5716 0.8556
vt 0.5718 0.8522
vt 0.6951 0.8627
vt 0.5047 0.8527
vt 0.5049 0.8494
vt 0.4382 0.8504
vt 0.4383 0.8471
vt 0.3718 0.8483
vt 0.3719 0.8450
vt 0.3053 0.8463
vt 0.3054 0.8430
vt 0.2389 0.8443
vt 0.2390 0.8410
vt 0.0999 0.7270
vt 0.1673 0.7264
vt 0.1673 0.7297
vt 0.2347 0.7258
vt 0.2347 0.7291
vt 0.3021 0.7252
vt 0.3021 0.7285
vt 0.3694 0.7246
vt 0.3695 0.7279
vt 0.4368 0.7239
vt 0.4369 0.7273
vt 0.5043 0.7231
vt 0.5043 0.7264
vt 0.6951 0.8627
vt 0.5718 0.8522
vt 0.5049 0.8494
vt 0.4383 0.8471
vt 0.3719 0.8450
vt 0.3054 0.8430
vt 0.2390 0.8410
vt 0.6955 0.9958
vt 0.5742 0.9931
vt 0.5060 0.9910
vt 0.4379 0.9889
vt 0.3698 0.9868
vt 0.3016 0.9847
vt 0.2335 0.9826
vn 1.0000 0.0000 0.0000
vn -1.0000 0.0000 0.0000
vn 0.0000 -0.9894 -0.1455
vn 0.0000 -0.0152 0.9999
vn 0.0000 -0.0109 0.9999
vn 0.0000 -0.0197 -0.9998
vn 0.0000 -0.1470 -0.9891
vn 0.0000 0.6814 -0.7319
vn 0.0000 0.6589 -0.7523
vn 0.0000 -0.2719 -0.9623
vn 0.0000 -0.2707 0.9627
vn 0.0000 -0.1463 0.9892
vn 0.0000 0.6122 0.7907
vn 0.0000 0.7128 0.7014
vn 0.0000 0.8041 0.5945
vn 0.0000 0.9507 0.3101
vn 0.0000 0.9507 -0.3101
vn 0.0000 0.7579 -0.6523
vn 0.0000 -0.0112 -0.9999
vn 0.0000 -0.0155 -0.9999
vn 0.0000 -0.0195 0.9998
usemtl Human__Flag
s 1
f 160/1/1 163/2/1 164/3/1 8/4/1
f 8/4/1 164/3/1 174/5/1 25/6/1
f 118/7/2 227/8/2 191/9/2 42/10/2
f 37/11/2 204/12/2 192/13/2 178/14/2
f 171/15/3 170/16/3 188/17/3 189/18/3
f 209/19/4 169/20/5 187/21/5 221/22/4
f 215/23/6 4/24/7 15/25/7 70/26/6
f 197/27/3 195/28/3 206/29/3 207/30/3
f 194/31/3 196/32/3 43/33/3 205/34/3
f 198/35/3 197/27/3 207/30/3 208/36/3
f 170/16/3 198/35/3 208/36/3 188/17/3
f 162/37/8 185/38/8 186/39/9 168/40/9
f 196/32/3 175/41/3 193/42/3 43/33/3
f 4/43/7 172/44/10 190/45/10 15/25/7
f 10/46/11 2/47/12 13/48/12 21/49/11
f 195/28/3 194/31/3 205/34/3 206/29/3
f 167/50/13 181/51/13 199/52/14 176/53/14
f 176/53/14 199/52/14 200/54/15 184/55/15
f 184/55/15 200/54/15 201/56/16 183/57/16
f 183/57/16 201/56/16 202/58/17 182/59/17
f 182/59/17 202/58/17 203/60/18 161/61/18
f 161/61/18 203/60/18 185/38/8 162/37/8
f 191/9/2 22/62/2 48/63/2 42/10/2
f 42/10/2 48/63/2 47/64/2 41/65/2
f 41/65/2 47/64/2 46/66/2 40/67/2
f 40/67/2 46/66/2 45/68/2 39/69/2
f 39/69/2 45/68/2 44/70/2 38/71/2
f 38/71/2 44/70/2 204/12/2 37/11/2
f 177/72/2 83/73/2 37/11/2 178/14/2
f 83/73/2 90/74/2 38/71/2 37/11/2
f 90/74/2 97/75/2 39/69/2 38/71/2
f 97/75/2 104/76/2 40/67/2 39/69/2
f 104/76/2 111/77/2 41/65/2 40/67/2
f 111/77/2 118/7/2 42/10/2 41/65/2
f 173/78/1 24/79/1 30/80/1 11/81/1
f 24/79/1 23/82/1 29/83/1 30/80/1
f 23/82/1 5/84/1 28/85/1 29/83/1
f 5/84/1 6/86/1 27/87/1 28/85/1
f 6/86/1 7/88/1 26/89/1 27/87/1
f 7/88/1 8/4/1 25/6/1 26/89/1
f 56/90/1 125/91/1 24/79/1 173/78/1
f 125/91/1 132/92/1 23/82/1 24/79/1
f 132/92/1 139/93/1 5/84/1 23/82/1
f 139/93/1 146/94/1 6/86/1 5/84/1
f 146/94/1 153/95/1 7/88/1 6/86/1
f 153/95/1 160/1/1 8/4/1 7/88/1
f 16/96/1 9/97/1 154/98/1 147/99/1
f 147/99/1 154/98/1 155/100/1 148/101/1
f 148/101/1 155/100/1 156/102/1 149/103/1
f 149/103/1 156/102/1 157/104/1 150/105/1
f 150/105/1 157/104/1 158/106/1 151/107/1
f 151/107/1 158/106/1 159/108/1 152/109/1
f 152/109/1 159/108/1 160/1/1 153/95/1
f 17/110/1 16/96/1 147/99/1 140/111/1
f 140/111/1 147/99/1 148/101/1 141/112/1
f 141/112/1 148/101/1 149/103/1 142/113/1
f 142/113/1 149/103/1 150/105/1 143/114/1
f 143/114/1 150/105/1 151/107/1 144/115/1
f 144/115/1 151/107/1 152/109/1 145/116/1
f 145/116/1 152/109/1 153/95/1 146/94/1
f 18/117/1 17/110/1 140/111/1 133/118/1
f 133/118/1 140/111/1 141/112/1 134/119/1
f 134/119/1 141/112/1 142/113/1 135/120/1
f 135/120/1 142/113/1 143/114/1 136/121/1
f 136/121/1 143/114/1 144/115/1 137/122/1
f 137/122/1 144/115/1 145/116/1 138/123/1
f 138/123/1 145/116/1 146/94/1 139/93/1
f 19/124/1 18/117/1 133/118/1 126/125/1
f 126/125/1 133/118/1 134/119/1 127/126/1
f 127/126/1 134/119/1 135/120/1 128/127/1
f 128/127/1 135/120/1 136/121/1 129/128/1
f 129/128/1 136/121/1 137/122/1 130/129/1
f 130/129/1 137/122/1 138/123/1 131/130/1
f 131/130/1 138/123/1 139/93/1 132/92/1
f 20/131/1 19/124/1 126/125/1 119/132/1
f 119/132/1 126/125/1 127/126/1 120/133/1
f 120/133/1 127/126/1 128/127/1 121/134/1
f 121/134/1 128/127/1 129/128/1 122/135/1
f 122/135/1 129/128/1 130/129/1 123/136/1
f 123/136/1 130/129/1 131/130/1 124/137/1
f 124/137/1 131/130/1 132/92/1 125/91/1
f 166/138/1 20/131/1 119/132/1 165/139/1
f 165/139/1 119/132/1 120/133/1 220/140/1
f 220/140/1 120/133/1 121/134/1 219/141/1
f 219/141/1 121/134/1 122/135/1 218/142/1
f 218/142/1 122/135/1 123/136/1 217/143/1
f 217/143/1 123/136/1 124/137/1 216/144/1
f 216/144/1 124/137/1 125/91/1 56/90/1
f 32/145/2 31/146/2 112/147/2 105/148/2
f 105/148/2 112/147/2 113/149/2 106/150/2
f 106/150/2 113/149/2 114/151/2 107/152/2
f 107/152/2 114/151/2 115/153/2 108/154/2
f 108/154/2 115/153/2 116/155/2 109/156/2
f 109/156/2 116/155/2 117/157/2 110/158/2
f 110/158/2 117/157/2 118/7/2 111/77/2
f 33/159/2 32/145/2 105/148/2 98/160/2
f 98/160/2 105/148/2 106/150/2 99/161/2
f 99/161/2 106/150/2 107/152/2 100/162/2
f 100/162/2 107/152/2 108/154/2 101/163/2
f 101/163/2 108/154/2 109/156/2 102/164/2
f 102/164/2 109/156/2 110/158/2 103/165/2
f 103/165/2 110/158/2 111/77/2 104/76/2
f 34/166/2 33/159/2 98/160/2 91/167/2
f 91/167/2 98/160/2 99/161/2 92/168/2
f 92/168/2 99/161/2 100/162/2 93/169/2
f 93/169/2 100/162/2 101/163/2 94/170/2
f 94/170/2 101/163/2 102/164/2 95/171/2
f 95/171/2 102/164/2 103/165/2 96/172/2
f 96/172/2 103/165/2 104/76/2 97/75/2
f 35/173/2 34/166/2 91/167/2 84/174/2
f 84/174/2 91/167/2 92/168/2 85/175/2
f 85/175/2 92/168/2 93/169/2 86/176/2
f 86/176/2 93/169/2 94/170/2 87/177/2
f 87/177/2 94/170/2 95/171/2 88/178/2
f 88/178/2 95/171/2 96/172/2 89/179/2
f 89/179/2 96/172/2 97/75/2 90/74/2
f 36/180/2 35/173/2 84/174/2 77/181/2
f 77/181/2 84/174/2 85/175/2 78/182/2
f 78/182/2 85/175/2 86/176/2 79/183/2
f 79/183/2 86/176/2 87/177/2 80/184/2
f 80/184/2 87/177/2 88/178/2 81/185/2
f 81/185/2 88/178/2 89/179/2 82/186/2
f 82/186/2 89/179/2 90/74/2 83/73/2
f 12/187/2 36/180/2 77/181/2 63/188/2
f 63/188/2 77/181/2 78/182/2 222/189/2
f 222/189/2 78/182/2 79/183/2 223/190/2
f 223/190/2 79/183/2 80/184/2 224/191/2
f 224/191/2 80/184/2 81/185/2 225/192/2
f 225/192/2 81/185/2 82/186/2 226/193/2
f 226/193/2 82/186/2 83/73/2 177/72/2
f 3/194/19 62/195/20 179/196/20 180/197/19
f 62/195/20 61/198/6 232/199/6 179/196/20
f 61/198/6 60/200/6 231/201/6 232/199/6
f 60/200/6 59/202/6 230/203/6 231/201/6
f 59/202/6 58/204/6 229/205/6 230/203/6
f 58/204/6 57/206/6 228/207/6 229/205/6
f 57/206/6 215/23/6 70/26/6 228/207/6
f 2/208/12 55/209/21 69/210/21 13/48/12
f 55/209/21 214/211/21 68/212/21 69/210/21
f 214/211/21 213/213/21 67/214/21 68/212/21
f 213/213/21 212/215/21 66/216/21 67/214/21
f 212/215/21 211/217/21 65/218/21 66/216/21
f 211/217/21 210/219/21 64/220/21 65/218/21
f 210/219/21 209/19/4 221/22/4 64/220/21
f 31/146/2 14/221/2 76/222/2 112/147/2
f 112/147/2 76/222/2 75/223/2 113/149/2
f 113/149/2 75/223/2 74/224/2 114/151/2
f 114/151/2 74/224/2 73/225/2 115/153/2
f 115/153/2 73/225/2 72/226/2 116/155/2
f 116/155/2 72/226/2 71/227/2 117/157/2
f 117/157/2 71/227/2 227/8/2 118/7/2
f 9/97/1 1/228/1 49/229/1 154/98/1
f 154/98/1 49/229/1 50/230/1 155/100/1
f 155/100/1 50/230/1 51/231/1 156/102/1
f 156/102/1 51/231/1 52/232/1 157/104/1
f 157/104/1 52/232/1 53/233/1 158/106/1
f 158/106/1 53/233/1 54/234/1 159/108/1
f 159/108/1 54/234/1 163/2/1 160/1/1
