# Blender v2.78 (sub 0) OBJ File: 'WatchTower.blend'
# www.blender.org
mtllib Human_ Flag4.mtl
g Human__Flag4
v 2.035081 -0.034950 0.006725
v 2.035081 0.031727 0.006725
v 0.046326 0.453681 0.009514
v -0.010183 0.453722 -0.038061
v -0.042626 0.453681 -0.009008
v -0.042219 -0.450593 -0.007522
v -0.038902 -0.403595 -0.007433
v -0.042285 0.399861 -0.005926
v 0.121878 -0.304806 0.006725
v 0.286985 -0.153209 0.006725
v 0.286985 0.149987 0.006725
v 0.121878 0.301584 0.006725
v -0.014027 -0.450593 -0.037967
v 0.015821 -0.450593 -0.034565
v 0.014076 0.453728 -0.037633
v -0.028667 0.399861 -0.024009
v -0.030382 -0.403595 -0.024667
v 0.011623 0.399904 -0.033142
v 0.015541 -0.403595 -0.031886
v -0.032657 -0.450593 -0.025953
v -0.028303 0.453681 -0.028027
v 0.033085 -0.403595 -0.008623
v 0.035635 0.403594 -0.010479
v -0.012899 -0.403595 -0.035942
v -0.011440 0.399899 -0.033549
v 0.039332 0.453473 -0.013796
v 0.034970 -0.450593 -0.008857
v -0.042587 0.452104 0.001588
v -0.041631 -0.450593 0.005457
v -0.038564 -0.403595 0.005412
v -0.042249 0.398361 0.004147
v -0.032563 0.451991 0.022248
v -0.033220 -0.450593 0.024398
v -0.029959 -0.403595 0.023433
v -0.032718 0.398253 0.023790
v -0.008689 0.453681 0.035029
v -0.012259 -0.450593 0.037533
v -0.011172 -0.403595 0.034930
v -0.010020 0.399861 0.035942
v 0.018297 0.453681 0.031597
v 0.016706 -0.450593 0.036824
v 0.016186 -0.403595 0.034522
v 0.015636 0.399861 0.032678
v 0.039621 0.453681 0.020030
v 0.032317 -0.450593 0.022903
v 0.030291 -0.403595 0.021240
v 0.035911 0.399861 0.021681
v 2.035081 -0.034950 0.014583
v 0.042273 -0.450593 0.020070
v 0.042285 0.399490 0.021681
v 0.046326 0.453681 0.020030
v 2.035081 0.031727 0.014583
v 0.039937 -0.403595 0.017387
v 0.121878 -0.304806 0.014583
v 0.286985 -0.153209 0.014583
v 0.358527 -0.001611 0.014583
v 0.286985 0.149987 0.014583
v 0.121878 0.301584 0.014583
v 0.002897 0.453262 0.000458
v -0.003127 0.403228 0.000458
v 0.358527 -0.001611 0.006725
v 0.039937 -0.403595 0.010706
v 0.042285 0.399490 0.011683
v 0.042273 -0.450593 0.011739
v 0.004910 -0.455075 0.002702
v -0.000248 -0.402394 0.002932
v 0.970822 0.228132 0.009373
v 0.965219 -0.232629 0.008860
v 0.965119 -0.232648 0.016087
v 0.966340 -0.107251 0.006725
v 0.969403 0.103821 0.014583
v 0.964949 -0.258149 0.017530
v 0.965400 -0.185828 0.006725
v 0.970438 0.181895 0.014583
v 0.967749 0.010503 0.006725
v 0.968166 0.010511 0.014583
v 0.964392 -0.258265 0.009419
v 0.971777 0.257329 0.017495
v 0.968865 0.103857 0.006725
v 0.965564 -0.185805 0.014583
v 0.971491 0.228009 0.018372
v 0.969800 0.181985 0.006725
v 0.966605 -0.107233 0.014583
v 0.970969 0.257500 0.008217
v 0.554490 -0.135112 0.014583
v 0.507679 0.355796 0.008867
v 0.502521 0.356891 0.018781
v 0.568676 -0.241786 0.006725
v 0.577778 -0.338902 0.018596
v 0.512024 0.312802 0.010514
v 0.530398 0.133520 0.006725
v 0.513197 0.246388 0.014583
v 0.575027 -0.304726 0.009639
v 0.578479 -0.338756 0.010390
v 0.566076 -0.242152 0.014583
v 0.543804 0.002073 0.006725
v 0.573509 -0.305006 0.016637
v 0.507586 0.313621 0.020024
v 0.539650 0.001990 0.014583
v 0.557774 -0.134890 0.006725
v 0.518970 0.245574 0.006725
v 0.525376 0.133860 0.014583
v 1.463081 0.112408 0.014583
v 1.437788 -0.145312 0.007917
v 1.438841 -0.145118 0.015421
v 1.465308 0.136877 0.008143
v 1.444513 -0.074902 0.006725
v 1.459135 0.070690 0.014583
v 1.440231 -0.118853 0.006725
v 1.453776 0.020168 0.006725
v 1.454357 0.020179 0.014583
v 1.436410 -0.159816 0.008232
v 1.467074 0.152241 0.016139
v 1.458702 0.070720 0.006725
v 1.441217 -0.118714 0.014583
v 1.465683 0.136807 0.016611
v 1.462768 0.112452 0.006725
v 1.445367 -0.074844 0.014583
v 1.466742 0.152312 0.007522
v 1.438823 -0.145308 0.015432
v 1.764464 0.069898 0.014583
v 1.750523 -0.087528 0.007293
v 1.749822 -0.087657 0.014984
v 1.766182 0.081352 0.007394
v 1.749150 -0.094587 0.015370
v 1.753467 -0.054001 0.006725
v 1.762634 0.050158 0.014583
v 1.751528 -0.074945 0.006725
v 1.760897 0.026275 0.006725
v 1.760418 0.026266 0.014583
v 1.749926 -0.094425 0.007443
v 1.763104 0.050127 0.006725
v 1.751026 -0.075016 0.014583
v 1.764928 0.069832 0.006725
v 1.752971 -0.054035 0.014583
v 1.766776 0.088654 0.007102
v 1.764475 0.070032 0.014594
v 1.765648 0.081450 0.015543
v 1.766432 0.088727 0.015319
v 1.434618 -0.160189 0.016237
v 2.035081 0.009501 0.006725
v 2.035081 -0.012724 0.006725
v 2.035081 0.009501 0.014583
v 2.035081 -0.012724 0.014583
v 0.310832 -0.102676 0.014583
v 0.334680 -0.052144 0.014583
v 0.310832 -0.102676 0.006725
v 0.334680 -0.052144 0.006725
v 0.967126 -0.067985 0.014583
v 0.967646 -0.028737 0.014583
v 0.967279 -0.028748 0.006725
v 0.966810 -0.067999 0.006725
v 0.549544 -0.089411 0.014583
v 0.544597 -0.043711 0.014583
v 0.548461 -0.043581 0.006725
v 0.553117 -0.089236 0.006725
v 1.450689 -0.011522 0.006725
v 1.447601 -0.043212 0.006725
v 1.448364 -0.043170 0.014583
v 1.451360 -0.011495 0.014583
v 1.755943 -0.027243 0.006725
v 1.758420 -0.000484 0.006725
v 1.757936 -0.000501 0.014583
v 1.755453 -0.027268 0.014583
v -0.012899 -0.403595 -0.035942
v 0.015541 -0.403595 -0.031886
v 1.766776 0.088654 0.007102
v 2.035081 0.031727 0.006725
v 2.035081 0.031727 0.006725
v -0.028667 0.399861 -0.024009
v -0.042285 0.399861 -0.005926
v -0.042626 0.453681 -0.009008
v -0.028303 0.453681 -0.028027
v -0.032657 -0.450593 -0.025953
v -0.042219 -0.450593 -0.007522
v 2.035081 -0.012724 0.006725
v 2.035081 -0.034950 0.006725
v 2.035081 -0.034950 0.006725
v 0.121878 -0.304806 0.006725
v 0.286985 -0.153209 0.006725
v 0.286985 0.149987 0.006725
v 0.121878 0.301584 0.006725
v -0.038902 -0.403595 -0.007433
v -0.030382 -0.403595 -0.024667
v 0.034970 -0.450593 -0.008857
v 0.015821 -0.450593 -0.034565
v 0.033085 -0.403595 -0.008623
v 0.046326 0.453681 0.009514
v 0.046326 0.453681 0.009514
v 0.046326 0.453681 0.009514
v 0.046326 0.453681 0.009514
v 0.046326 0.453681 0.020030
v 0.046326 0.453681 0.020030
v 0.046326 0.453681 0.020030
v 0.046326 0.453681 0.020030
v 0.035635 0.403594 -0.010479
v 0.011623 0.399904 -0.033142
v -0.014027 -0.450593 -0.037967
v 0.014076 0.453728 -0.037633
v 0.039332 0.453473 -0.013796
v -0.011440 0.399899 -0.033549
v -0.010183 0.453722 -0.038061
v -0.042587 0.452104 0.001588
v -0.042249 0.398361 0.004147
v -0.038564 -0.403595 0.005412
v -0.041631 -0.450593 0.005457
v -0.032563 0.451991 0.022248
v -0.032718 0.398253 0.023790
v -0.029959 -0.403595 0.023433
v -0.033220 -0.450593 0.024398
v -0.008689 0.453681 0.035029
v -0.010020 0.399861 0.035942
v -0.011172 -0.403595 0.034930
v -0.012259 -0.450593 0.037533
v 0.018297 0.453681 0.031597
v 0.015636 0.399861 0.032678
v 0.016186 -0.403595 0.034522
v 0.016706 -0.450593 0.036824
v 0.039621 0.453681 0.020030
v 0.035911 0.399861 0.021681
v 0.030291 -0.403595 0.021240
v 0.032317 -0.450593 0.022903
v 0.577778 -0.338902 0.018596
v 0.042273 -0.450593 0.020070
v 0.042285 0.399490 0.021681
v 0.042285 0.399490 0.021681
v 0.042285 0.399490 0.021681
v 0.042285 0.399490 0.021681
v 1.766432 0.088727 0.015319
v 2.035081 0.031727 0.014583
v 2.035081 0.031727 0.014583
v 2.035081 -0.012724 0.014583
v 2.035081 -0.034950 0.014583
v 2.035081 -0.034950 0.014583
v 0.039937 -0.403595 0.017387
v 0.039937 -0.403595 0.017387
v 0.121878 -0.304806 0.014583
v 0.286985 -0.153209 0.014583
v 0.334680 -0.052144 0.014583
v 0.358527 -0.001611 0.014583
v 0.358527 -0.001611 0.014583
v 0.286985 0.149987 0.014583
v 0.121878 0.301584 0.014583
v 0.334680 -0.052144 0.006725
v 0.358527 -0.001611 0.006725
v 0.358527 -0.001611 0.006725
v 0.039937 -0.403595 0.010706
v 0.039937 -0.403595 0.010706
v 0.039937 -0.403595 0.010706
v 0.042285 0.399490 0.011683
v 0.042285 0.399490 0.011683
v 0.042285 0.399490 0.011683
v 0.042285 0.399490 0.011683
v 0.578479 -0.338756 0.010390
v 0.042273 -0.450593 0.011739
v 0.042273 -0.450593 0.011739
v 1.434618 -0.160189 0.016237
v 0.964949 -0.258149 0.017530
v 1.436410 -0.159816 0.008232
v 0.964392 -0.258265 0.009419
v 0.502521 0.356891 0.018781
v 0.971777 0.257329 0.017495
v 0.971777 0.257329 0.017495
v 0.507679 0.355796 0.008867
v 0.970969 0.257500 0.008217
v 0.970969 0.257500 0.008217
v 1.749926 -0.094425 0.007443
v 1.467074 0.152241 0.016139
v 1.466742 0.152312 0.007522
v 1.749150 -0.094587 0.015370
v 2.035081 0.009501 0.006725
v 2.035081 0.009501 0.014583
v 0.310832 -0.102676 0.014583
v 0.310832 -0.102676 0.006725
vt 0.4417 0.5923
vt 0.4417 0.5907
vt 0.4886 0.5907
vt 0.4886 0.5923
vt 0.8559 0.9962
vt 0.8559 0.9984
vt 0.7584 0.9985
vt 0.7573 0.9964
vt 0.5588 0.5924
vt 0.5588 0.5907
vt 0.6058 0.5907
vt 0.6058 0.5924
vt 0.4054 0.1769
vt 0.4037 0.1864
vt 0.4016 0.1861
vt 0.4033 0.1766
vt 0.4148 0.5915
vt 0.4148 0.5901
vt 0.4679 0.3948
vt 0.4793 0.3948
vt 0.4792 0.3970
vt 0.4678 0.3969
vt 0.6322 0.5892
vt 0.6322 0.5913
vt 0.5237 0.5924
vt 0.5237 0.5907
vt 0.4401 0.1786
vt 0.4407 0.1882
vt 0.4346 0.1886
vt 0.4343 0.1790
vt 0.4976 0.3188
vt 0.4974 0.3301
vt 0.4927 0.3303
vt 0.4926 0.3191
vt 0.4300 0.1791
vt 0.4300 0.1887
vt 0.4258 0.1887
vt 0.4261 0.1791
vt 0.4461 0.1780
vt 0.4472 0.1876
vt 0.5143 0.3195
vt 0.5133 0.3299
vt 0.5063 0.3301
vt 0.5070 0.3188
vt 0.5193 0.3201
vt 0.5180 0.3314
vt 0.5019 0.3187
vt 0.5015 0.3300
vt 0.4503 0.1775
vt 0.4517 0.1871
vt 0.4906 0.3308
vt 0.4904 0.3195
vt 0.4231 0.1886
vt 0.4234 0.1790
vt 0.4860 0.3311
vt 0.4856 0.3198
vt 0.4189 0.1884
vt 0.4193 0.1787
vt 0.4806 0.3310
vt 0.4800 0.3197
vt 0.4138 0.1879
vt 0.4149 0.1783
vt 0.4752 0.3311
vt 0.4743 0.3199
vt 0.4079 0.1871
vt 0.4093 0.1776
vt 0.4704 0.3313
vt 0.4692 0.3200
vt 0.0622 0.0318
vt 0.1262 0.0274
vt 0.1261 0.0306
vt 0.0622 0.0334
vt 0.0002 0.0513
vt 0.0607 0.0675
vt 0.0606 0.0702
vt 0.0609 0.0630
vt 0.0014 0.0416
vt 0.0020 0.0368
vt 0.0616 0.0457
vt 0.0613 0.0514
vt 0.0618 0.0405
vt 0.0620 0.0363
vt 0.0606 0.0717
vt 0.5120 0.5924
vt 0.5120 0.5907
vt 0.5237 0.5907
vt 0.5237 0.5924
vt 0.2824 0.9981
vt 0.2820 0.9998
vt 0.1836 0.9995
vt 0.1836 0.9978
vt 0.4182 0.9972
vt 0.4182 0.9989
vt 0.4135 0.9989
vt 0.4135 0.9972
vt 0.4690 0.3314
vt 0.4678 0.3201
vt 0.4708 0.3451
vt 0.4678 0.3411
vt 0.4773 0.3391
vt 0.4864 0.3372
vt 0.4864 0.3350
vt 0.4678 0.3389
vt 0.4699 0.3346
vt 0.4797 0.3471
vt 0.4746 0.3472
vt 0.4850 0.3350
vt 0.4805 0.3326
vt 0.4749 0.3319
vt 0.4849 0.3421
vt 0.4812 0.3659
vt 0.4841 0.3722
vt 0.4757 0.3713
vt 0.4716 0.3776
vt 0.4681 0.3735
vt 0.4678 0.3689
vt 0.4836 0.3771
vt 0.4686 0.3670
vt 0.4816 0.3785
vt 0.4768 0.3790
vt 0.4727 0.3645
vt 0.4768 0.3640
vt 0.4828 0.3790
vt 0.8592 0.0402
vt 0.8010 0.0363
vt 0.8010 0.0348
vt 0.8608 0.0543
vt 0.8019 0.0725
vt 0.8018 0.0698
vt 0.8017 0.0653
vt 0.8597 0.0449
vt 0.8014 0.0539
vt 0.8013 0.0481
vt 0.8012 0.0430
vt 0.8011 0.0388
vt 0.8019 0.0740
vt 0.4678 0.3566
vt 0.4678 0.3539
vt 0.4776 0.3563
vt 0.4833 0.3607
vt 0.4799 0.3635
vt 0.4801 0.3485
vt 0.4840 0.3540
vt 0.4854 0.3584
vt 0.4699 0.3501
vt 0.4739 0.3477
vt 0.4738 0.3635
vt 0.4854 0.3601
vt 0.4695 0.3607
vt 0.4813 0.3820
vt 0.4837 0.3872
vt 0.4763 0.3870
vt 0.4683 0.3838
vt 0.4708 0.3806
vt 0.4775 0.3795
vt 0.4711 0.3931
vt 0.4678 0.3881
vt 0.4771 0.3943
vt 0.4814 0.3939
vt 0.4733 0.3795
vt 0.4825 0.3911
vt 0.4826 0.3933
vt 0.1000 0.9976
vt 0.0999 0.9993
vt 0.0002 0.9980
vt 0.0003 0.9962
vt 0.6290 0.0249
vt 0.6299 0.0347
vt 0.5331 0.0324
vt 0.5300 0.0184
vt 0.2188 0.1237
vt 0.2193 0.1185
vt 0.2973 0.1430
vt 0.2956 0.1498
vt 0.2240 0.0770
vt 0.2249 0.0689
vt 0.3119 0.0815
vt 0.3098 0.0906
vt 0.6381 0.1127
vt 0.6392 0.1226
vt 0.5575 0.1469
vt 0.5549 0.1338
vt 0.6354 0.0877
vt 0.6363 0.0960
vt 0.5504 0.1116
vt 0.5483 0.1021
vt 0.2270 0.0499
vt 0.3182 0.0550
vt 0.6397 0.1280
vt 0.5587 0.1533
vt 0.2204 0.1090
vt 0.2222 0.0930
vt 0.3054 0.1090
vt 0.3004 0.1305
vt 0.6317 0.0513
vt 0.5382 0.0558
vt 0.2287 0.0339
vt 0.2297 0.0244
vt 0.3264 0.0187
vt 0.3235 0.0323
vt 0.2304 0.0184
vt 0.3285 0.0101
vt 0.6283 0.0187
vt 0.5280 0.0094
vt 0.6337 0.0710
vt 0.5442 0.0831
vt 0.1834 0.9978
vt 0.4503 0.1775
vt 0.4645 0.1560
vt 0.3671 0.0577
vt 0.3487 0.0868
vt 0.4865 0.9970
vt 0.4866 0.9987
vt 0.4278 0.9988
vt 0.4278 0.9971
vt 0.4234 0.0131
vt 0.4046 0.0311
vt 0.4288 0.0118
vt 0.4283 0.0002
vt 0.3594 0.1194
vt 0.3891 0.1544
vt 0.5055 0.0884
vt 0.4866 0.0583
vt 0.4480 0.0305
vt 0.3523 0.0977
vt 0.4943 0.1217
vt 0.4981 0.1106
vt 0.4517 0.1871
vt 0.4239 0.0019
vt 0.6581 0.9985
vt 0.5522 0.9986
vt 0.5523 0.9968
vt 0.6582 0.9966
vt 0.7370 0.0868
vt 0.7371 0.0925
vt 0.7367 0.0706
vt 0.7368 0.0774
vt 0.7360 0.0373
vt 0.7362 0.0462
vt 0.7372 0.0956
vt 0.1252 0.0843
vt 0.1253 0.0751
vt 0.1256 0.0551
vt 0.1258 0.0445
vt 0.1260 0.0357
vt 0.7359 0.0287
vt 0.7360 0.0320
vt 0.7364 0.0570
vt 0.1255 0.0617
vt 0.1252 0.0899
vt 0.4135 0.9972
vt 0.4135 0.9989
vt 0.3509 0.9993
vt 0.3510 0.9976
vt 0.8015 0.0596
vt 0.1256 0.0944
vt 0.1251 0.0913
vt 0.0621 0.0351
vt 0.0611 0.0572
vt 0.1254 0.0684
vt 0.7365 0.0638
vt 0.2231 0.0850
vt 0.6346 0.0794
vt 0.5463 0.0926
vt 0.5018 0.0995
vt 0.3076 0.0998
vt 0.3558 0.1086
vt 0.8603 0.0496
vt 0.4278 0.9971
vt 0.4278 0.9988
vt 0.4230 0.9988
vt 0.4230 0.9972
vt 0.5003 0.5907
vt 0.5003 0.5923
vt 0.0008 0.0464
vn -0.7242 0.6896 0.0000
vn -0.7250 0.6888 0.0000
vn -0.8054 0.5928 0.0000
vn 0.2075 0.9782 0.0000
vn -0.8054 -0.5928 0.0000
vn -0.7289 -0.6846 0.0000
vn -0.7274 -0.6862 0.0000
vn 0.5110 0.0551 0.8578
vn 0.5068 0.0552 0.8603
vn 0.1659 0.0585 0.9844
vn 0.1257 0.0539 0.9906
vn -0.7697 0.6384 0.0000
vn 0.9972 -0.0744 0.0000
vn -0.7759 -0.6308 0.0000
vn -0.9044 -0.4268 0.0000
vn 0.5080 0.0463 -0.8601
vn 0.4979 0.0465 -0.8660
vn -0.2235 0.0519 -0.9733
vn -0.2176 0.0519 -0.9746
vn -0.6496 -0.0522 -0.7585
vn -0.6606 -0.0514 -0.7489
vn -0.9562 -0.0228 -0.2918
vn -0.9394 -0.0255 -0.3419
vn -0.7402 0.0563 -0.6700
vn -0.7429 0.0564 -0.6670
vn -0.9749 0.0657 -0.2125
vn -0.9740 0.0657 -0.2166
vn 0.8801 0.0386 -0.4732
vn 0.8814 0.0387 -0.4707
vn 0.8453 -0.0937 -0.5260
vn 0.8506 -0.0935 -0.5175
vn 0.3626 -0.0957 -0.9270
vn 0.3793 -0.0960 -0.9203
vn 0.9522 -0.0862 -0.2931
vn -0.2340 -0.0758 -0.9693
vn -0.2480 -0.0752 -0.9658
vn 0.9418 0.0394 -0.3339
vn -0.9699 0.0055 0.2435
vn -0.9780 0.0038 0.2086
vn -0.9710 0.0679 0.2293
vn -0.9702 0.0679 0.2327
vn -0.7230 0.0219 0.6905
vn -0.7199 0.0220 0.6937
vn -0.7514 0.0638 0.6567
vn -0.7440 0.0636 0.6651
vn -0.1924 0.0214 0.9811
vn -0.1718 0.0209 0.9849
vn -0.2652 0.0566 0.9625
vn -0.2625 0.0566 0.9633
vn 0.3008 0.0043 0.9537
vn 0.3127 0.0036 0.9499
vn 0.3693 0.0541 0.9277
vn 0.3726 0.0541 0.9264
vn 0.2530 0.0122 0.9674
vn 0.2351 0.0135 0.9719
vn 0.0091 0.0298 0.9995
vn -0.0012 -0.0260 0.9997
vn -0.0002 0.0015 1.0000
vn -0.0023 0.0161 0.9999
vn -0.0068 0.0443 0.9990
vn 0.0000 -0.0000 1.0000
vn -0.0001 -0.0015 1.0000
vn -0.0039 -0.0279 0.9996
vn -0.0090 0.0566 0.9984
vn -0.9044 0.4268 0.0000
vn 0.2042 -0.9789 0.0000
vn 1.0000 0.0000 0.0000
vn 0.0009 0.0305 0.9995
vn 0.0060 0.9999 0.0082
vn -0.0082 0.9965 0.0835
vn -0.0100 0.9999 0.0044
vn -0.0092 1.0000 -0.0024
vn -0.0071 1.0000 -0.0058
vn -0.0230 0.9955 0.0923
vn -0.0372 0.9993 -0.0023
vn -0.0007 0.9999 0.0120
vn 0.0017 0.9999 0.0114
vn -0.0016 0.9998 -0.0185
vn -0.0039 0.9999 -0.0115
vn -0.0310 0.9993 -0.0225
vn -0.0052 1.0000 0.0015
vn 0.0208 -0.9940 0.1075
vn -0.0069 -0.9983 -0.0578
vn 0.0337 -0.9993 -0.0128
vn 0.0492 -0.9952 -0.0849
vn 0.1137 -0.9912 -0.0672
vn 0.1126 -0.9877 -0.1086
vn -0.0666 -0.9958 -0.0621
vn 0.0950 -0.9938 -0.0585
vn -0.0538 -0.9968 -0.0591
vn -0.0300 -0.9958 -0.0866
vn 0.0638 -0.9955 0.0704
vn 0.0239 -0.9955 0.0916
vn -0.0754 -0.9971 -0.0143
vn 0.0000 0.0008 -1.0000
vn -0.0008 0.0089 -1.0000
vn -0.0097 -0.0393 -0.9992
vn 0.0002 -0.0014 -1.0000
vn 0.0042 -0.0337 -0.9994
vn 0.0032 -0.0228 -0.9997
vn 0.0000 0.0000 -1.0000
vn 0.0040 0.0286 -0.9996
vn 0.0020 -0.0219 -0.9998
vn -0.0946 -0.9953 0.0206
vn -0.0904 -0.9957 -0.0199
vn 0.0180 -0.9998 0.0036
vn 0.0616 -0.9888 0.1358
vn 0.0445 -0.9924 0.1150
vn 0.0538 -0.9932 -0.1037
vn 0.1230 -0.9903 -0.0641
vn 0.1523 -0.9883 -0.0105
vn -0.0708 -0.9955 -0.0629
vn -0.0263 -0.9949 -0.0974
vn -0.0338 -0.9932 0.1111
vn 0.1431 -0.9892 0.0333
vn -0.0798 -0.9947 0.0653
vn -0.0097 0.9994 0.0342
vn 0.0132 0.9994 0.0311
vn 0.0007 1.0000 0.0021
vn -0.0219 0.9996 -0.0196
vn -0.0293 0.9995 -0.0066
vn -0.0253 0.9994 0.0219
vn 0.0155 0.9995 -0.0275
vn -0.0068 0.9996 -0.0287
vn 0.0305 0.9994 -0.0159
vn 0.0307 0.9995 -0.0042
vn -0.0309 0.9995 0.0068
vn 0.0188 0.9992 0.0342
vn 0.0246 0.9996 0.0146
vn -0.0090 0.0565 0.9984
vn -0.0058 -0.0408 0.9991
vn 0.0033 -0.0288 -0.9996
vn 0.0051 -0.0365 -0.9993
vn 0.0030 -0.0032 1.0000
vn -0.0092 -0.0652 0.9978
vn -0.0045 -0.0107 -0.9999
vn -0.0036 0.0257 0.9997
vn 0.0064 0.0456 -0.9989
vn 0.2076 0.9782 0.0000
vn -0.0062 0.0412 0.9991
vn -0.0115 -0.0816 0.9966
usemtl Human__Flag
s 1
f 179/1/1 237/2/2 238/3/3 180/4/3
f 191/5/4 195/6/4 87/7/4 86/8/4
f 181/9/5 242/10/5 243/11/6 182/12/7
f 221/13/8 222/14/9 49/15/10 236/16/11
f 247/17/12 235/18/12 237/2/2 179/1/1
f 63/19/13 188/20/13 192/21/13 50/22/13
f 182/12/7 243/11/6 226/23/14 251/24/14
f 246/25/15 241/26/15 242/10/5 181/9/5
f 166/27/16 186/28/17 198/29/18 165/30/19
f 173/31/20 170/32/21 171/33/22 172/34/23
f 184/35/24 174/36/25 175/37/26 183/38/27
f 187/39/28 185/40/29 186/28/17 166/27/16
f 200/41/30 196/42/31 197/43/32 199/44/33
f 165/30/19 198/29/18 174/36/25 184/35/24
f 189/45/34 250/46/34 196/42/31 200/41/30
f 202/47/35 201/48/36 170/32/21 173/31/20
f 248/49/37 256/50/37 185/40/29 187/39/28
f 199/44/33 197/43/32 201/48/36 202/47/35
f 172/34/23 171/33/22 204/51/38 203/52/39
f 183/38/27 175/37/26 206/53/40 205/54/41
f 203/52/39 204/51/38 208/55/42 207/56/43
f 205/54/41 206/53/40 210/57/44 209/58/45
f 207/56/43 208/55/42 212/59/46 211/60/47
f 209/58/45 210/57/44 214/61/48 213/62/49
f 211/60/47 212/59/46 216/63/50 215/64/51
f 213/62/49 214/61/48 218/65/52 217/66/53
f 215/64/51 216/63/50 220/67/54 219/68/55
f 217/66/53 218/65/52 222/14/9 221/13/8
f 139/69/56 113/70/56 116/71/57 138/72/57
f 234/73/58 133/74/59 123/75/60
f 234/73/58 135/76/61 133/74/59
f 272/77/61 231/78/62 130/79/61 163/80/61
f 231/78/62 127/81/61 130/79/61
f 231/78/62 121/82/63 127/81/61
f 234/73/58 123/75/60 270/83/64
f 244/84/65 239/85/65 240/86/65 245/87/65
f 259/88/66 257/89/66 258/90/66 260/91/66
f 176/92/67 232/93/67 233/94/67 177/95/67
f 220/67/54 225/96/68 193/97/68 219/68/55
f 21/98/69 5/99/70 59/100/71
f 190/101/72 59/100/71 194/102/73
f 28/103/74 32/104/75 59/100/71
f 15/105/76 4/106/77 59/100/71
f 4/106/77 21/98/69 59/100/71
f 44/107/78 194/102/73 59/100/71
f 5/99/70 28/103/74 59/100/71
f 40/108/79 44/107/78 59/100/71
f 36/109/80 40/108/79 59/100/71
f 26/110/81 15/105/76 59/100/71
f 190/101/72 26/110/81 59/100/71
f 32/104/75 36/109/80 59/100/71
f 18/111/82 23/112/83 60/113/84
f 39/114/85 35/115/86 60/113/84
f 35/115/86 31/116/87 60/113/84
f 23/112/83 252/117/88 60/113/84
f 31/116/87 8/118/89 60/113/84
f 47/119/90 43/120/91 60/113/84
f 8/118/89 16/121/92 60/113/84
f 16/121/92 25/122/93 60/113/84
f 43/120/91 39/114/85 60/113/84
f 25/122/93 18/111/82 60/113/84
f 227/123/94 47/119/90 60/113/84
f 252/117/88 227/123/94 60/113/84
f 168/124/95 124/125/96 167/126/97
f 178/127/98 122/128/99 128/129/100
f 178/127/98 128/129/100 126/130/101
f 271/131/101 162/132/101 129/133/101 168/124/95
f 168/124/95 129/133/101 132/134/101
f 168/124/95 132/134/101 134/135/102
f 168/124/95 134/135/102 124/125/96
f 178/127/98 267/136/103 122/128/99
f 29/137/104 6/138/105 65/139/106
f 45/140/107 41/141/108 65/139/106
f 14/142/109 27/143/110 65/139/106
f 27/143/110 255/144/111 65/139/106
f 20/145/112 13/146/113 65/139/106
f 13/146/113 14/142/109 65/139/106
f 41/141/108 37/147/114 65/139/106
f 224/148/115 45/140/107 65/139/106
f 37/147/114 33/149/116 65/139/106
f 255/144/111 224/148/115 65/139/106
f 6/138/105 20/145/112 65/139/106
f 33/149/116 29/137/104 65/139/106
f 38/150/117 42/151/118 66/152/119
f 17/153/120 7/154/121 66/152/119
f 34/155/122 38/150/117 66/152/119
f 19/156/123 24/157/124 66/152/119
f 24/157/124 17/153/120 66/152/119
f 22/158/125 19/156/123 66/152/119
f 249/159/126 22/158/125 66/152/119
f 30/160/127 34/155/122 66/152/119
f 46/161/128 53/162/129 66/152/119
f 53/162/129 249/159/126 66/152/119
f 7/154/121 30/160/127 66/152/119
f 42/151/118 46/161/128 66/152/119
f 254/163/66 223/164/66 224/165/115 255/166/111
f 67/167/96 82/168/102 101/169/102 90/170/96
f 72/171/130 69/172/60 97/173/60 89/174/130
f 150/175/61 76/176/61 99/177/61 154/178/61
f 73/179/100 68/180/99 93/181/99 88/182/100
f 152/183/101 70/184/101 100/185/101 156/186/101
f 76/176/61 71/187/61 102/188/61 99/177/61
f 68/180/99 77/189/103 94/190/103 93/181/99
f 80/191/59 83/192/61 85/193/61 95/194/59
f 82/168/102 79/195/101 91/196/101 101/169/102
f 74/197/131 81/198/57 98/199/57 92/200/131
f 81/198/57 262/201/56 261/202/56 98/199/57
f 265/203/97 67/167/96 90/170/96 264/204/97
f 70/184/101 73/179/100 88/182/100 100/185/101
f 79/195/101 75/205/101 96/206/101 91/196/101
f 71/187/61 74/197/131 92/200/131 102/188/61
f 69/172/60 80/191/59 95/194/59 97/173/60
f 260/207/66 258/90/66 223/164/66 254/163/66
f 89/174/130 97/173/60 236/16/11 49/15/10
f 88/182/100 93/181/99 62/208/132 9/209/133
f 99/177/61 102/188/61 57/210/61 56/211/61
f 136/212/4 229/213/4 230/214/4 169/215/4
f 92/200/131 98/199/57 228/216/134 58/217/135
f 264/204/97 90/170/96 253/218/136 3/219/97
f 95/194/59 85/193/61 55/220/61 54/221/137
f 97/173/60 95/194/59 54/221/137 236/16/11
f 91/196/101 96/206/101 61/222/101 11/223/101
f 90/170/96 101/169/102 12/224/138 253/218/136
f 154/178/61 99/177/61 56/211/61 146/225/61
f 156/186/101 100/185/101 10/226/101 274/227/101
f 93/181/99 94/190/103 64/228/103 62/208/132
f 101/169/102 91/196/101 11/223/101 12/224/138
f 98/199/57 261/202/56 51/229/56 228/216/134
f 100/185/101 88/182/100 9/209/133 10/226/101
f 102/188/61 92/200/131 58/217/135 57/210/61
f 86/8/4 87/7/4 78/230/139 268/231/139 269/232/139 84/233/139
f 109/234/100 104/235/99 68/180/99 73/179/100
f 158/236/101 107/237/101 70/184/101 152/183/101
f 117/238/102 114/239/101 79/195/101 82/168/102
f 104/235/99 112/240/103 77/189/103 68/180/99
f 115/241/59 118/242/61 83/192/61 80/191/59
f 111/243/61 108/244/61 71/187/61 76/176/61
f 103/245/131 116/71/57 81/198/57 74/197/131
f 116/71/57 113/70/56 262/201/56 81/198/57
f 119/246/97 106/247/96 67/167/96 265/203/97
f 107/237/101 109/234/100 73/179/100 70/184/101
f 114/239/101 110/248/101 75/205/101 79/195/101
f 108/244/61 103/245/131 74/197/131 71/187/61
f 160/249/61 111/243/61 76/176/61 150/175/61
f 106/247/96 117/238/102 82/168/102 67/167/96
f 80/191/59 69/172/60 105/250/140 115/241/59
f 1/251/66 48/252/66 125/253/66 131/254/66
f 123/75/60 133/74/59 115/241/59 105/250/140
f 128/129/100 122/128/99 104/235/99 109/234/100
f 161/255/101 126/130/101 107/237/101 158/236/101
f 134/135/102 132/134/101 114/239/101 117/238/102
f 122/128/99 267/136/103 112/240/103 104/235/99
f 133/74/59 135/76/61 118/242/61 115/241/59
f 130/79/61 127/81/61 108/244/61 111/243/61
f 108/244/61 127/81/61 121/82/63 103/245/131
f 167/126/97 124/125/96 106/247/96 119/246/97
f 126/130/101 128/129/100 109/234/100 107/237/101
f 132/134/101 129/133/101 110/248/101 114/239/101
f 124/125/96 134/135/102 117/238/102 106/247/96
f 140/256/64 120/257/64 69/172/60 72/171/130
f 163/80/61 130/79/61 111/243/61 160/249/61
f 103/245/131 137/258/141 138/72/57 116/71/57
f 231/78/62 139/69/56 138/72/57
f 231/78/62 138/72/57 137/258/141 121/82/63
f 269/232/139 268/231/139 229/213/4 136/212/4
f 270/83/64 123/75/60 105/250/140 120/257/64 140/256/64
f 131/254/66 125/253/66 257/89/66 259/88/66
f 135/76/61 164/259/61 159/260/61 118/242/61
f 164/259/61 163/80/61 160/249/61 159/260/61
f 129/133/101 162/132/101 157/261/101 110/248/101
f 162/132/101 161/255/101 158/236/101 157/261/101
f 118/242/61 159/260/61 149/262/61 83/192/61
f 159/260/61 160/249/61 150/175/61 149/262/61
f 110/248/101 157/261/101 151/263/101 75/205/101
f 157/261/101 158/236/101 152/183/101 151/263/101
f 96/206/101 155/264/101 148/265/101 61/222/101
f 155/264/101 156/186/101 274/227/101 148/265/101
f 85/193/61 153/266/61 273/267/61 55/220/61
f 153/266/61 154/178/61 146/225/61 273/267/61
f 75/205/101 151/263/101 155/264/101 96/206/101
f 151/263/101 152/183/101 156/186/101 155/264/101
f 83/192/61 149/262/61 153/266/61 85/193/61
f 149/262/61 150/175/61 154/178/61 153/266/61
f 178/127/98 126/130/101 161/255/101 142/268/101
f 142/268/101 161/255/101 162/132/101 271/131/101
f 2/269/67 52/270/67 143/271/67 141/272/67
f 141/272/67 143/271/67 232/93/67 176/92/67
f 180/4/3 238/3/3 145/273/65 147/274/65
f 147/274/65 145/273/65 239/85/65 244/84/65
f 234/73/58 144/275/61 164/259/61 135/76/61
f 144/275/61 272/77/61 163/80/61 164/259/61
l 263 266
